<svg xmlns="http://www.w3.org/2000/svg" xmlns:xlink="http://www.w3.org/1999/xlink" xmlns:lucid="lucid" width="1972.3" height="1318.02"><g transform="translate(-815.5314160133707 -22.479546901011872)" lucid:page-tab-id="m-5o7ONTd-nK"><path d="M1181.2 380V28.98a6 6 0 0 1 6-6h34V380z" stroke="#3a414a" fill="#6db1ff"/><path d="M1181.2 380h40v320h-40z" stroke="#3a414a" fill="#00c2a8"/><path d="M1181.2 700h40v320h-40z" stroke="#3a414a" fill="#9391ff"/><path d="M1221.2 1340h-34a6 6 0 0 1-6-6v-314h40z" stroke="#3a414a" fill="#ff80df"/><path d="M1221.2 22.98h1560.13a6 6 0 0 1 6 6V380H1221.2zM1221.2 380h1566.13v320H1221.2zM1221.2 700h1566.13v320H1221.2zM2787.33 1020v314a6 6 0 0 1-6 6H1221.2v-320z" stroke="#3a414a" fill="none"/><use xlink:href="#a" transform="matrix(-1.8369701987210297e-16,-1,1,-1.8369701987210297e-16,1181.188909401987,380) translate(155.94173177083334 28.017903645833332)"/><use xlink:href="#b" transform="matrix(-1.8369701987210297e-16,-1,1,-1.8369701987210297e-16,1181.188909401987,700) translate(86.07731119791669 28.017903645833332)"/><use xlink:href="#c" transform="matrix(-1.8369701987210297e-16,-1,1,-1.8369701987210297e-16,1181.188909401987,700) translate(176.57470703125 28.017903645833332)"/><use xlink:href="#d" transform="matrix(-1.8369701987210297e-16,-1,1,-1.8369701987210297e-16,1181.188909401987,1019.9999999999998) translate(114.70084635416667 28.017903645833332)"/><use xlink:href="#e" transform="matrix(-1.8369701987210297e-16,-1,1,-1.8369701987210297e-16,1181.188909401987,1019.9999999999998) translate(149.32356770833334 28.017903645833332)"/><use xlink:href="#f" transform="matrix(-1.8369701987210297e-16,-1,1,-1.8369701987210297e-16,1181.188909401987,1339.9999999999998) translate(83.67561848958334 28.017903645833332)"/><use xlink:href="#g" transform="matrix(-1.8369701987210297e-16,-1,1,-1.8369701987210297e-16,1181.188909401987,1339.9999999999998) translate(131.52783203125 28.017903645833332)"/><path d="M816.03 38.98a16 16 0 0 1 16-16h259.76a16 16 0 0 1 16 16v189.36a16 16 0 0 1-16 16H832.02a16 16 0 0 1-16-16z" stroke="#4c535d" fill="#fff"/><path d="M852.13 99.68a13.54 13.54 0 0 1 13.53-13.54 13.54 13.54 0 0 1 13.54 13.54 13.54 13.54 0 0 1-13.54 13.53 13.54 13.54 0 0 1-13.53-13.52" stroke="#000" stroke-opacity=".25" fill="#6db1ff"/><path d="M852.13 135.77a13.54 13.54 0 0 1 13.53-13.53 13.54 13.54 0 0 1 13.54 13.53 13.54 13.54 0 0 1-13.54 13.54 13.54 13.54 0 0 1-13.53-13.53" stroke="#000" stroke-opacity=".25" fill="#00c2a8"/><path d="M852.13 171.87a13.54 13.54 0 0 1 13.53-13.54 13.54 13.54 0 0 1 13.54 13.53 13.54 13.54 0 0 1-13.54 13.54 13.54 13.54 0 0 1-13.53-13.53" stroke="#000" stroke-opacity=".25" fill="#9391ff"/><path d="M852.13 207.96a13.54 13.54 0 0 1 13.53-13.54 13.54 13.54 0 0 1 13.54 13.54 13.54 13.54 0 0 1-13.54 13.53 13.54 13.54 0 0 1-13.53-13.54" stroke="#000" stroke-opacity=".25" fill="#ff80df"/><use xlink:href="#h" transform="matrix(1,0,0,1,852.1249125579906,50.04966930947672) translate(0 16.216875)"/><use xlink:href="#i" transform="matrix(1,0,0,1,852.1249125579906,50.04966930947672) translate(70.057880859375 16.216875)"/><use xlink:href="#j" transform="matrix(1,0,0,1,852.1249125579906,50.04966930947672) translate(109.48842773437501 16.216875)"/><use xlink:href="#k" transform="matrix(1,0,0,1,892.7300961706878,86.14316585409651) translate(0 18.736279296875)"/><use xlink:href="#l" transform="matrix(1,0,0,1,892.7300961706878,122.2366623987163) translate(0 18.736279296875)"/><use xlink:href="#m" transform="matrix(1,0,0,1,892.7300961706878,122.2366623987163) translate(57.01335937500001 18.736279296875)"/><use xlink:href="#n" transform="matrix(1,0,0,1,892.7300961706878,158.3301589433361) translate(0 18.736279296875)"/><use xlink:href="#o" transform="matrix(1,0,0,1,892.7300961706878,194.4236554879559) translate(0 18.736279296875)"/><use xlink:href="#p" transform="matrix(1,0,0,1,892.7300961706878,194.4236554879559) translate(30.146894531250005 18.736279296875)"/><path d="M2460 122.34a8 8 0 0 1 8-8h191.66a8 8 0 0 1 8 8v132c-34.68-23.38-56.27-23.38-69.36-23.38-20.76 0-48.38 23.38-69.15 23.38-12.87 0-34.68 0-69.15-23.38z" stroke="#3a414a" fill="#cfe4ff"/><use xlink:href="#q" transform="matrix(1,0,0,1,2465.561,119.9005469010119) translate(28.582465277777768 30.86772222222222)"/><use xlink:href="#r" transform="matrix(1,0,0,1,2465.561,119.9005469010119) translate(50.77430555555556 60.98230555555555)"/><use xlink:href="#s" transform="matrix(1,0,0,1,2465.561,119.9005469010119) translate(114.97569444444444 60.98230555555555)"/><use xlink:href="#t" transform="matrix(1,0,0,1,2465.561,119.9005469010119) translate(62.10677083333333 91.09688888888888)"/><path d="M2160.52 132.34a8 8 0 0 1 8-8h144.37a8 8 0 0 1 8 8v104a8 8 0 0 1-8 8H2168.5a8 8 0 0 1-8-8z" stroke="#3a414a" fill="#cfe4ff"/><use xlink:href="#u" transform="matrix(1,0,0,1,2166.077858936195,129.90054690101192) translate(13.761881510416668 61.197583333333334)"/><use xlink:href="#v" transform="matrix(1,0,0,1,2166.077858936195,129.90054690101192) translate(65.69091796875 61.197583333333334)"/><path d="M2207.3 1128a8 8 0 0 1 8-8h144.36a8 8 0 0 1 8 8v104a8 8 0 0 1-8 8H2215.3a8 8 0 0 1-8-8z" stroke="#3a414a" fill="#ffd6f5"/><use xlink:href="#w" transform="matrix(1,0,0,1,2212.8503128145935,1125.561) translate(18.610677083333332 50.978833333333334)"/><use xlink:href="#x" transform="matrix(1,0,0,1,2212.8503128145935,1125.561) translate(39.72639973958333 75.98469270833334)"/><path d="M1900.37 1128a8 8 0 0 1 8-8h144.38a8 8 0 0 1 8 8v104a8 8 0 0 1-8 8h-144.38a8 8 0 0 1-8-8z" stroke="#3a414a" fill="#ffd6f5"/><use xlink:href="#y" transform="matrix(1,0,0,1,1905.9350859369222,1125.561) translate(53.98014322916666 61.197583333333334)"/><path d="M1607.1 828a8 8 0 0 1 8-8h144.38a8 8 0 0 1 8 8v104a8 8 0 0 1-8 8H1615.1a8 8 0 0 1-8-8z" stroke="#3a414a" fill="#dedeff"/><use xlink:href="#z" transform="matrix(1,0,0,1,1612.6632698461322,825.561) translate(25.907118055555546 37.96147222222222)"/><use xlink:href="#A" transform="matrix(1,0,0,1,1612.6632698461322,825.561) translate(36.0329861111111 59.471888888888884)"/><use xlink:href="#B" transform="matrix(1,0,0,1,1612.6632698461322,825.561) translate(65.81597222222223 59.471888888888884)"/><use xlink:href="#C" transform="matrix(1,0,0,1,1612.6632698461322,825.561) translate(48.862847222222214 80.98230555555554)"/><path d="M2187.3 628c0 6.63-26.87 12-60 12-33.15 0-60-5.37-60-12v-96c0-6.63 26.85-12 60-12 33.13 0 60 5.37 60 12z" stroke="#3a414a" fill="#b8f5ed"/><path d="M2187.3 532c0 6.63-26.87 12-60 12-33.15 0-60-5.37-60-12" stroke="#3a414a" fill="none"/><use xlink:href="#D" transform="matrix(1,0,0,1,2072.8503128145935,549.561) translate(9.235243055555546 29.31059722222222)"/><use xlink:href="#E" transform="matrix(1,0,0,1,2072.8503128145935,549.561) translate(27.060763888888882 50.821013888888885)"/><use xlink:href="#F" transform="matrix(1,0,0,1,2072.8503128145935,549.561) translate(33.818576388888886 72.33143055555556)"/><path d="M1339.63 245.34v74.83a12 12 0 0 0 12 12H1568a12 12 0 0 1 12 12v58.95" stroke="#3a414a" fill="none"/><path d="M1339.62 244.84l.48-.02v.53h-.95v-.53z" stroke="#3a414a" stroke-width=".05" fill="#3a414a"/><path d="M1580 417.88l-4.63-14.26h9.27z" stroke="#3a414a" fill="#3a414a"/><path d="M1399.63 232.34c0 6.63-26.87 12-60 12-33.14 0-60-5.37-60-12v-96c0-6.63 26.86-12 60-12 33.13 0 60 5.37 60 12z" stroke="#3a414a" fill="#cfe4ff"/><path d="M1399.63 136.34c0 6.63-26.87 12-60 12-33.14 0-60-5.37-60-12" stroke="#3a414a" fill="none"/><use xlink:href="#G" transform="matrix(1,0,0,1,1285.1869140630777,153.90054690101192) translate(13.592881944444446 29.31059722222222)"/><use xlink:href="#H" transform="matrix(1,0,0,1,1285.1869140630777,153.90054690101192) translate(0.3680555555555536 50.821013888888885)"/><use xlink:href="#I" transform="matrix(1,0,0,1,1285.1869140630777,153.90054690101192) translate(35.15104166666666 72.33143055555556)"/><path d="M1546.34 132.34a8 8 0 0 1 8-8h144.37a8 8 0 0 1 8 8v104a8 8 0 0 1-8 8h-144.36a8 8 0 0 1-8-8z" stroke="#3a414a" fill="#cfe4ff"/><use xlink:href="#J" transform="matrix(1,0,0,1,1551.9011717295018,129.90054690101192) translate(51.94173177083333 61.197583333333334)"/><path d="M1400.63 184.34h128.83" stroke="#3a414a" fill="none"/><path d="M1400.64 184.8h-.5v-.94h.5z" stroke="#3a414a" stroke-width=".05" fill="#3a414a"/><path d="M1544.22 184.34l-14.26 4.63v-9.27z" stroke="#3a414a" fill="#3a414a"/><path d="M2321.9 184.34h121.22" stroke="#3a414a" fill="none"/><path d="M2321.9 184.8h-.5v-.94h.5z" stroke="#3a414a" stroke-width=".05" fill="#3a414a"/><path d="M2457.88 184.34l-14.26 4.63v-9.27z" stroke="#3a414a" fill="#3a414a"/><path d="M1853.43 132.34a8 8 0 0 1 8-8h144.37a8 8 0 0 1 8 8v104a8 8 0 0 1-8 8h-144.37a8 8 0 0 1-8-8z" stroke="#3a414a" fill="#cfe4ff"/><use xlink:href="#K" transform="matrix(1,0,0,1,1858.9895153328482,129.90054690101192) translate(51.94173177083333 50.978833333333334)"/><use xlink:href="#L" transform="matrix(1,0,0,1,1858.9895153328482,129.90054690101192) translate(31.370930989583325 75.98469270833334)"/><path d="M1707.7 184.34h128.85" stroke="#3a414a" fill="none"/><path d="M1707.73 184.8h-.52v-.94h.53z" stroke="#3a414a" stroke-width=".05" fill="#3a414a"/><path d="M1851.3 184.34l-14.25 4.63v-9.27z" stroke="#3a414a" fill="#3a414a"/><path d="M2014.8 184.34h128.83" stroke="#3a414a" fill="none"/><path d="M2014.82 184.8h-.52v-.94h.52z" stroke="#3a414a" stroke-width=".05" fill="#3a414a"/><path d="M2158.4 184.34l-14.27 4.63v-9.27z" stroke="#3a414a" fill="#3a414a"/><path d="M2507.3 528a8 8 0 0 1 8-8h128a8 8 0 0 1 8 8v94c-24.06-17.03-39.04-17.03-48.1-17.03-14.4 0-33.56 17.03-47.96 17.03-8.93 0-24.05 0-47.95-17.03z" stroke="#3a414a" fill="#b8f5ed"/><path d="M2515.3 537a8 8 0 0 1 8-8h128a8 8 0 0 1 8 8v94c-24.06-17.03-39.04-17.03-48.1-17.03-14.4 0-33.56 17.03-47.96 17.03-8.93 0-24.05 0-47.95-17.03z" stroke="#3a414a" fill="#b8f5ed"/><path d="M2523.3 546a8 8 0 0 1 8-8h128a8 8 0 0 1 8 8v94c-24.06-17.03-39.04-17.03-48.1-17.03-14.4 0-33.56 17.03-47.96 17.03-8.93 0-24.05 0-47.95-17.03z" stroke="#3a414a" fill="#b8f5ed"/><use xlink:href="#M" transform="matrix(1,0,0,1,2528.8503128145935,543.561) translate(18.19704861111111 44.05522222222222)"/><use xlink:href="#N" transform="matrix(1,0,0,1,2528.8503128145935,543.561) translate(54.82899305555556 44.05522222222222)"/><use xlink:href="#O" transform="matrix(1,0,0,1,2528.8503128145935,543.561) translate(71.7734375 44.05522222222222)"/><path d="M1339.63 245.34V868a12 12 0 0 0 12 12h238.6" stroke="#3a414a" fill="none"/><path d="M1339.62 244.84l.48-.02v.53h-.95v-.53z" stroke="#3a414a" stroke-width=".05" fill="#3a414a"/><path d="M1604.98 880l-14.26 4.63v-9.26z" stroke="#3a414a" fill="#3a414a"/><path d="M1747.3 628c0 6.63-26.87 12-60 12-33.15 0-60-5.37-60-12v-96c0-6.63 26.85-12 60-12 33.13 0 60 5.37 60 12z" stroke="#3a414a" fill="#b8f5ed"/><path d="M1747.3 532c0 6.63-26.87 12-60 12-33.15 0-60-5.37-60-12" stroke="#3a414a" fill="none"/><use xlink:href="#P" transform="matrix(1,0,0,1,1632.8503128145933,549.561) translate(22.989583333333325 26.24272222222222)"/><use xlink:href="#Q" transform="matrix(1,0,0,1,1632.8503128145933,549.561) translate(13.592881944444446 47.753138888888884)"/><use xlink:href="#R" transform="matrix(1,0,0,1,1632.8503128145933,549.561) translate(36.123263888888886 69.26355555555554)"/><path d="M1519.63 628c0 6.63-26.87 12-60 12-33.14 0-60-5.37-60-12v-96c0-6.63 26.86-12 60-12 33.13 0 60 5.37 60 12z" stroke="#3a414a" fill="#b8f5ed"/><path d="M1519.63 532c0 6.63-26.87 12-60 12-33.14 0-60-5.37-60-12" stroke="#3a414a" fill="none"/><use xlink:href="#S" transform="matrix(1,0,0,1,1405.1869140630777,549.561) translate(17.620659722222218 39.52397222222222)"/><use xlink:href="#T" transform="matrix(1,0,0,1,1405.1869140630777,549.561) translate(14.756076388888882 61.034388888888884)"/><path d="M1947.3 540c22.08 0 40 17.9 40 40s-17.92 40-40 40h-80c-22.1 0-40-17.9-40-40s17.9-40 40-40z" stroke="#3a414a" fill="#b8f5ed"/><use xlink:href="#U" transform="matrix(1,0,0,1,1832.8503128145933,545.561) translate(23.453993055555546 40.33647222222222)"/><use xlink:href="#V" transform="matrix(1,0,0,1,1832.8503128145933,545.561) translate(86.84809027777777 40.33647222222222)"/><path d="M2387.3 540c22.08 0 40 17.9 40 40s-17.92 40-40 40h-80c-22.1 0-40-17.9-40-40s17.9-40 40-40z" stroke="#3a414a" fill="#b8f5ed"/><use xlink:href="#W" transform="matrix(1,0,0,1,2272.8503128145935,545.561) translate(14.291666666666668 40.33647222222222)"/><use xlink:href="#X" transform="matrix(1,0,0,1,2272.8503128145935,545.561) translate(75.71527777777779 40.33647222222222)"/><path d="M1900 828a8 8 0 0 1 8-8h144a8 8 0 0 1 8 8v112c-26.72-20.04-43.36-20.04-53.44-20.04-16 0-37.28 20.04-53.28 20.04-9.92 0-26.72 0-53.28-20.04z" stroke="#3a414a" fill="#dedeff"/><use xlink:href="#Y" transform="matrix(1,0,0,1,1905.561,825.561) translate(47.8984375 42.065805555555556)"/><use xlink:href="#Z" transform="matrix(1,0,0,1,1905.561,825.561) translate(1.2361111111110965 63.57622222222222)"/><path d="M1768.48 880h114.64" stroke="#3a414a" fill="none"/><path d="M1768.5 880.48h-.52v-.96h.5z" stroke="#3a414a" stroke-width=".05" fill="#3a414a"/><path d="M1897.88 880l-14.26 4.63v-9.26z" stroke="#3a414a" fill="#3a414a"/><path d="M1748.3 580h62.1" stroke="#3a414a" fill="none"/><path d="M1748.3 580.48h-.5v-.96h.5z" stroke="#3a414a" stroke-width=".05" fill="#3a414a"/><path d="M1825.17 580l-14.27 4.63v-9.26z" stroke="#3a414a" fill="#3a414a"/><path d="M1988.3 580h62.1" stroke="#3a414a" fill="none"/><path d="M1988.3 580.48h-.54l.03-.47-.03-.48h.53z" stroke="#3a414a" stroke-width=".05" fill="#3a414a"/><path d="M2065.17 580l-14.26 4.63v-9.26z" stroke="#3a414a" fill="#3a414a"/><path d="M2188.3 580h62.1" stroke="#3a414a" fill="none"/><path d="M2188.3 580.48h-.5v-.96h.5z" stroke="#3a414a" stroke-width=".05" fill="#3a414a"/><path d="M2265.17 580l-14.26 4.63v-9.26z" stroke="#3a414a" fill="#3a414a"/><path d="M2428.3 580h62.1" stroke="#3a414a" fill="none"/><path d="M2428.3 580.48h-.54l.03-.47-.03-.48h.53z" stroke="#3a414a" stroke-width=".05" fill="#3a414a"/><path d="M2505.17 580l-14.26 4.63v-9.26z" stroke="#3a414a" fill="#3a414a"/><path d="M2327.3 840.33c22.08 0 40 17.9 40 40s-17.92 40-40 40h-80c-22.1 0-40-17.9-40-40s17.9-40 40-40z" stroke="#3a414a" fill="#dedeff"/><use xlink:href="#aa" transform="matrix(1,0,0,1,2212.8503128145935,845.895402554557) translate(30.50694444444444 29.55522222222222)"/><use xlink:href="#ab" transform="matrix(1,0,0,1,2212.8503128145935,845.895402554557) translate(102.19097222222223 29.55522222222222)"/><use xlink:href="#ac" transform="matrix(1,0,0,1,2212.8503128145935,845.895402554557) translate(49.54774305555556 51.065638888888884)"/><path d="M1459.63 519v-47a12 12 0 0 1 12-12h11.5" stroke="#3a414a" fill="none"/><path d="M1460.1 519.52l-.47-.02-.48.02V519h.95z" stroke="#3a414a" stroke-width=".05" fill="#3a414a"/><path d="M1497.88 460l-14.26 4.63v-9.26z" stroke="#3a414a" fill="#3a414a"/><path d="M1661 460h14.3a12 12 0 0 1 12 12v31.12" stroke="#3a414a" fill="none"/><path d="M1661 460.48h-.53l.03-.47-.02-.48h.53z" stroke="#3a414a" stroke-width=".05" fill="#3a414a"/><path d="M1687.3 517.88l-4.65-14.26h9.27z" stroke="#3a414a" fill="#3a414a"/><path d="M1620 420c22.1 0 40 17.9 40 40s-17.9 40-40 40h-80c-22.1 0-40-17.9-40-40s17.9-40 40-40z" stroke="#3a414a" fill="#b8f5ed"/><use xlink:href="#ad" transform="matrix(1,0,0,1,1505.561,425.561) translate(31.618055555555554 40.33647222222222)"/><use xlink:href="#ae" transform="matrix(1,0,0,1,1505.561,425.561) translate(78.68402777777777 40.33647222222222)"/><path d="M2387.3 420c22.08 0 40 17.9 40 40s-17.92 40-40 40h-80c-22.1 0-40-17.9-40-40s17.9-40 40-40z" stroke="#3a414a" fill="#b8f5ed"/><use xlink:href="#af" transform="matrix(1,0,0,1,2272.8503128145935,425.561) translate(45.302951388888886 29.55522222222222)"/><use xlink:href="#ag" transform="matrix(1,0,0,1,2272.8503128145935,425.561) translate(44.15711805555556 51.065638888888884)"/><path d="M2347.3 501v22.12" stroke="#3a414a" fill="none"/><path d="M2347.76 501h-.95v-.5h.96z" stroke="#3a414a" stroke-width=".05" fill="#3a414a"/><path d="M2347.3 537.88l-4.65-14.26h9.28z" stroke="#3a414a" fill="#3a414a"/><path d="M2563.83 243.5v75.75a12 12 0 0 1-12 12H2359.3a12 12 0 0 0-12 12v59.87" stroke="#3a414a" fill="none"/><path d="M2564.3 243.5h-.94v-.28l.95-.44z" stroke="#3a414a" stroke-width=".05" fill="#3a414a"/><path d="M2347.3 417.88l-4.65-14.26h9.28z" stroke="#3a414a" fill="#3a414a"/><path d="M1600 1128a8 8 0 0 1 8-8h144.37a8 8 0 0 1 8 8v104a8 8 0 0 1-8 8H1608a8 8 0 0 1-8-8z" stroke="#3a414a" fill="#ffd6f5"/><g><use xlink:href="#ah" transform="matrix(1,0,0,1,1605.561,1125.561) translate(15.870930989583325 61.197583333333334)"/><use xlink:href="#ai" transform="matrix(1,0,0,1,1605.561,1125.561) translate(67.70914713541667 61.197583333333334)"/></g><path d="M1899.37 1180h-122.1" stroke="#3a414a" fill="none"/><path d="M1899.87 1180.47h-.5v-.94h.5z" stroke="#3a414a" stroke-width=".05" fill="#3a414a"/><path d="M1762.5 1180l14.26-4.63v9.27z" stroke="#3a414a" fill="#3a414a"/><path d="M1687.3 641v162.12" stroke="#3a414a" fill="none"/><path d="M1687.3 640.5l.46-.02v.53h-.95v-.52z" stroke="#3a414a" stroke-width=".05" fill="#3a414a"/><path d="M1687.3 817.88l-4.65-14.26h9.27z" stroke="#3a414a" fill="#3a414a"/><path d="M2061 880h72.48a.17.17 0 0 1 .16.17.17.17 0 0 0 .17.16h56.6" stroke="#3a414a" fill="none"/><path d="M2061 880.48h-.5v-.96h.5z" stroke="#3a414a" stroke-width=".05" fill="#3a414a"/><path d="M2205.17 880.33l-14.26 4.64v-9.27z" stroke="#3a414a" fill="#3a414a"/><path d="M2206.3 1180h-128.67" stroke="#3a414a" fill="none"/><path d="M2206.8 1180.47h-.52v-.94h.5z" stroke="#3a414a" stroke-width=".05" fill="#3a414a"/><path d="M2062.87 1180l14.26-4.63v9.27z" stroke="#3a414a" fill="#3a414a"/><path d="M2587.3 635.98V1168a12 12 0 0 1-12 12h-190.75" stroke="#3a414a" fill="none"/><path d="M2587.76 636h-.95v-.3l.96-.44z" stroke="#3a414a" stroke-width=".05" fill="#3a414a"/><path d="M2369.78 1180l14.27-4.63v9.27z" stroke="#3a414a" fill="#3a414a"/><path d="M2668.66 184.34h27.5a12 12 0 0 1 12 12V1188a12 12 0 0 1-12 12h-137.78a.2.2 0 0 1-.22-.2.2.2 0 0 0-.2-.23h-173.4" stroke="#3a414a" fill="none"/><path d="M2668.68 184.8h-.52v-.94h.52z" stroke="#3a414a" stroke-width=".05" fill="#3a414a"/><path d="M2369.78 1199.57l14.27-4.63v9.27z" stroke="#3a414a" fill="#3a414a"/><path d="M2368.3 880.33h79.2a12 12 0 0 1 12 12V1148a12 12 0 0 1-12 12h-63.33" stroke="#3a414a" fill="none"/><path d="M2368.3 880.8h-.54l.03-.46-.03-.48h.53z" stroke="#3a414a" stroke-width=".05" fill="#3a414a"/><path d="M2369.4 1160l14.27-4.63v9.27z" stroke="#3a414a" fill="#3a414a"/><path d="M1433.44 648a8 8 0 0 1 8-8h36.37a8 8 0 0 1 8 8v15.8a8 8 0 0 1-8 8h-36.36a8 8 0 0 1-8-8z" fill="none"/><g><use xlink:href="#aj" transform="matrix(1,0,0,1,1438.4392734380776,645) translate(0 17.5478515625)"/></g><g transform="matrix(1,0,0,1,1438.4392734380776,645)"><a xlink:href="https://grouplens.org/datasets/movielens/" target="_blank"><path class="lucid-link lucid-hotspot lucid-overlay-hotspot" fill-opacity="0" d="M6.57.1H35.8v21.8H6.57z"/></a></g><path d="M1310.48 101.2a8 8 0 0 1 8-8h36.38a8 8 0 0 1 8 8V117a8 8 0 0 1-8 8h-36.38a8 8 0 0 1-8-8z" fill="none"/><g><use xlink:href="#aj" transform="matrix(1,0,0,1,1315.4818158207986,98.20049894363092) translate(0 17.5478515625)"/></g><g transform="matrix(1,0,0,1,1315.4818158207986,98.20049894363092)"><a xlink:href="https://grouplens.org/datasets/movielens/" target="_blank"><path class="lucid-link lucid-hotspot lucid-overlay-hotspot" fill-opacity="0" d="M6.57.1H35.8v21.8H6.57z"/></a></g><defs><path d="M763 24c-353 0-583-224-583-531v-983h190v968c0 214 149 370 393 370 243 0 391-156 391-370v-968h190v983c0 307-230 531-581 531" id="ak"/><path d="M538 24C308 24 148-78 108-271l171-41c32 123 123 178 257 178 156 0 256-77 256-169 0-77-54-128-164-154l-186-44c-203-48-300-148-300-305 0-192 176-326 414-326 230 0 351 112 402 269l-163 42c-31-80-94-158-238-158-133 0-233 69-233 162 0 83 57 129 188 160l169 40c203 48 298 149 298 302 0 196-179 339-441 339" id="al"/><path d="M628 24c-324 0-524-230-524-574 0-343 198-582 503-582 237 0 487 146 487 559v75H286c9 234 145 362 343 362 132 0 231-58 273-172l174 48C1024-91 857 24 628 24zM287-650h624c-17-190-120-322-304-322-192 0-309 151-320 322" id="am"/><path d="M158 0v-1118h174v172h12c41-113 157-188 290-188 26 0 70 2 91 3v181c-11-2-60-10-108-10-161 0-279 109-279 260V0H158" id="an"/><g id="a"><use transform="matrix(0.010091145833333332,0,0,0.010091145833333332,0,0)" xlink:href="#ak"/><use transform="matrix(0.010091145833333332,0,0,0.010091145833333332,15.378906249999998,0)" xlink:href="#al"/><use transform="matrix(0.010091145833333332,0,0,0.010091145833333332,26.28743489583333,0)" xlink:href="#am"/><use transform="matrix(0.010091145833333332,0,0,0.010091145833333332,38.33626302083333,0)" xlink:href="#an"/></g><path d="M180 0v-1490h510c348 0 508 194 508 460 0 198-88 351-276 417L1256 0h-220L726-579c-117 2-238 0-356 1V0H180zm190-747h312c235 0 327-108 327-283 0-177-92-293-329-293H370v576" id="ao"/><path d="M598-1118v154H368v674c0 100 37 144 132 144 23 0 62-6 92-12L629-6c-37 13-88 20-134 20-193 0-307-107-307-290v-688H20v-154h168v-266h180v266h230" id="ap"/><path d="M158 0v-1118h180V0H158zm91-1301c-68 0-125-53-125-119s57-119 125-119c69 0 126 53 126 119s-57 119-126 119" id="aq"/><path d="M481 0L54-1118h197c107 314 236 620 325 951 87-331 217-637 324-951h197L670 0H481" id="ar"/><path d="M471 26C259 26 90-98 90-318c0-256 228-303 435-329 202-27 287-16 287-108 0-139-79-219-234-219-161 0-248 86-283 164l-173-57c86-203 278-265 451-265 150 0 419 46 419 395V0H815v-152h-12C765-73 660 26 471 26zm31-159c199 0 310-134 310-271v-155c-30 35-226 55-295 64-131 17-246 59-246 186 0 116 97 176 231 176" id="as"/><path d="M338-1490V0H158v-1490h180" id="at"/><g id="b"><use transform="matrix(0.010091145833333332,0,0,0.010091145833333332,0,0)" xlink:href="#ao"/><use transform="matrix(0.010091145833333332,0,0,0.010091145833333332,12.997395833333332,0)" xlink:href="#am"/><use transform="matrix(0.010091145833333332,0,0,0.010091145833333332,25.046223958333332,0)" xlink:href="#ap"/><use transform="matrix(0.010091145833333332,0,0,0.010091145833333332,31.807291666666664,0)" xlink:href="#an"/><use transform="matrix(0.010091145833333332,0,0,0.010091145833333332,39.91048177083333,0)" xlink:href="#aq"/><use transform="matrix(0.010091145833333332,0,0,0.010091145833333332,44.915690104166664,0)" xlink:href="#am"/><use transform="matrix(0.010091145833333332,0,0,0.010091145833333332,56.56087239583333,0)" xlink:href="#ar"/><use transform="matrix(0.010091145833333332,0,0,0.010091145833333332,68.07486979166666,0)" xlink:href="#as"/><use transform="matrix(0.010091145833333332,0,0,0.010091145833333332,79.67968749999999,0)" xlink:href="#at"/></g><path d="M218-607c0-325 108-727 258-974h175c-155 315-250 682-250 974 0 265 78 531 250 886H476C306-10 218-315 218-607" id="au"/><path d="M52 0l541-1490h220L1361 0h-200l-149-416H398L254 0H52zm404-582h497c-103-290-145-390-251-756-108 377-145 460-246 756" id="av"/><path d="M789 20c-398 0-667-293-667-764 0-473 273-766 655-766 315 0 558 198 612 487h-196c-61-191-204-311-415-311-262 0-471 207-471 590 0 380 208 588 482 588 249 0 420-165 425-427H828v-166h572v163c0 370-256 606-611 606" id="aw"/><path d="M96 279C273-86 346-350 346-607c0-292-95-659-250-974h175c150 246 258 650 258 974 0 297-91 602-258 886H96" id="ax"/><g id="c"><use transform="matrix(0.010091145833333332,0,0,0.010091145833333332,0,0)" xlink:href="#au"/><use transform="matrix(0.010091145833333332,0,0,0.010091145833333332,7.538085937499999,0)" xlink:href="#ao"/><use transform="matrix(0.010091145833333332,0,0,0.010091145833333332,20.838216145833332,0)" xlink:href="#av"/><use transform="matrix(0.010091145833333332,0,0,0.010091145833333332,34.390625,0)" xlink:href="#aw"/><use transform="matrix(0.010091145833333332,0,0,0.010091145833333332,49.80989583333333,0)" xlink:href="#ax"/></g><path d="M57 0l534-763-501-727h220c122 187 296 416 391 605 94-191 272-419 396-605h215L811-770 1340 0h-219C986-204 811-426 699-640 588-430 407-202 273 0H57" id="ay"/><g id="d"><use transform="matrix(0.010091145833333332,0,0,0.010091145833333332,0,0)" xlink:href="#ay"/><use transform="matrix(0.010091145833333332,0,0,0.010091145833333332,13.39095052083333,0)" xlink:href="#aw"/></g><path d="M180 0v-1490h528c311 0 458 177 458 395 0 191-114 278-244 313v14c139 9 302 137 302 371 0 225-148 397-499 397H180zm190-168h350c232 0 321-102 321-231 0-149-120-277-311-277H370v508zm0-668h328c160 0 286-101 286-255 0-129-87-231-280-231H370v486" id="az"/><path d="M613 24c-304 0-509-231-509-576 0-350 205-580 509-580 305 0 511 230 511 580 0 345-206 576-511 576zm0-161c226 0 329-195 329-415 0-222-103-419-329-419-223 0-326 196-326 419 0 220 103 415 326 415" id="aA"/><g id="e"><use transform="matrix(0.010091145833333332,0,0,0.010091145833333332,0,0)" xlink:href="#az"/><use transform="matrix(0.010091145833333332,0,0,0.010091145833333332,13.522135416666664,0)" xlink:href="#aA"/><use transform="matrix(0.010091145833333332,0,0,0.010091145833333332,25.914062499999996,0)" xlink:href="#aA"/><use transform="matrix(0.010091145833333332,0,0,0.010091145833333332,38.30598958333333,0)" xlink:href="#al"/><use transform="matrix(0.010091145833333332,0,0,0.010091145833333332,49.214518229166664,0)" xlink:href="#ap"/></g><path d="M180 0v-1490h190v1322h690V0H180" id="aB"/><path d="M180 0v-1490h270l367 940c28 72 75 218 110 339 35-117 81-264 110-339l362-940h271V0h-187c2-448-5-837 7-1287-157 497-311 829-483 1287H842C666-458 514-784 354-1284c12 438 5 843 7 1284H180" id="aC"/><g id="f"><use transform="matrix(0.010091145833333332,0,0,0.010091145833333332,0,0)" xlink:href="#aB"/><use transform="matrix(0.010091145833333332,0,0,0.010091145833333332,11.685546874999998,0)" xlink:href="#aB"/><use transform="matrix(0.010091145833333332,0,0,0.010091145833333332,23.371093749999996,0)" xlink:href="#aC"/></g><path d="M370-1490V0H180v-1490h190" id="aD"/><path d="M338-670V0H158v-1118h173l1 207c72-158 192-221 342-221 226 0 378 139 378 422V0H872v-695c0-172-96-275-252-275-161 0-282 109-282 300" id="aE"/><path d="M611 442c-248 0-391-105-460-228l146-94c47 65 117 165 314 165 178 0 307-82 307-266v-224h-17C863-141 792-18 576-18c-268 0-472-195-472-546 0-346 197-568 476-568 216 0 288 133 326 193h17v-179h175V29c0 289-215 413-487 413zm-5-620c203 0 314-146 314-390 0-237-108-403-314-403-213 0-319 180-319 403 0 230 109 390 319 390" id="aF"/><g id="g"><use transform="matrix(0.010091145833333332,0,0,0.010091145833333332,0,0)" xlink:href="#aD"/><use transform="matrix(0.010091145833333332,0,0,0.010091145833333332,5.550130208333333,0)" xlink:href="#aE"/><use transform="matrix(0.010091145833333332,0,0,0.010091145833333332,17.760416666666664,0)" xlink:href="#ap"/><use transform="matrix(0.010091145833333332,0,0,0.010091145833333332,24.319661458333332,0)" xlink:href="#am"/><use transform="matrix(0.010091145833333332,0,0,0.010091145833333332,36.36848958333333,0)" xlink:href="#aF"/><use transform="matrix(0.010091145833333332,0,0,0.010091145833333332,49.04296874999999,0)" xlink:href="#an"/><use transform="matrix(0.010091145833333332,0,0,0.010091145833333332,56.82324218749999,0)" xlink:href="#as"/><use transform="matrix(0.010091145833333332,0,0,0.010091145833333332,68.42805989583333,0)" xlink:href="#ap"/><use transform="matrix(0.010091145833333332,0,0,0.010091145833333332,75.18912760416666,0)" xlink:href="#aq"/><use transform="matrix(0.010091145833333332,0,0,0.010091145833333332,80.19433593749999,0)" xlink:href="#aA"/><use transform="matrix(0.010091145833333332,0,0,0.010091145833333332,92.58626302083333,0)" xlink:href="#aE"/></g><path d="M135 0v-1490h581c339 0 533 210 533 503 0 295-197 500-540 500H440V0H135zm305-733h220c186 0 274-104 274-254s-88-251-275-251H440v505" id="aG"/><path d="M128 0v-1118h290v195h12c54-169 184-238 367-200v268c-27-8-86-15-130-15-138 0-239 95-239 234V0H128" id="aH"/><path d="M628 22C291 22 81-210 81-554c0-346 210-578 547-578 336 0 547 232 547 578 0 344-211 576-547 576zm0-236c160 0 242-146 242-341 0-197-82-341-242-341S387-753 387-555c0 195 81 341 241 341" id="aI"/><path d="M628 22C291 22 81-210 81-554c0-346 210-578 547-578 265 0 455 142 497 372l-279 52c-25-116-99-188-215-188-160 0-244 139-244 341 0 200 84 341 244 341 116 0 193-74 217-195l279 51C1085-123 896 22 628 22" id="aJ"/><path d="M633 22C291 22 81-200 81-553c0-345 210-579 537-579 292 0 525 185 525 567v84H378c7 183 109 277 260 277 105 0 184-46 216-132l272 51C1071-99 893 22 633 22zM380-669h474c-15-146-94-237-233-237-143 0-229 99-241 237" id="aK"/><path d="M572 22C302 22 117-98 78-306l279-48c29 105 101 156 224 156 114 0 185-48 185-115 0-118-228-130-337-155-215-49-322-150-322-317 0-215 187-347 470-347 265 0 424 116 466 298l-266 47c-24-76-87-130-196-130-98 0-174 46-174 113 0 56 38 95 144 117l201 40c216 44 320 143 320 302 0 220-207 367-500 367" id="aL"/><g id="h"><use transform="matrix(0.008173828125000001,0,0,0.008173828125000001,0,0)" xlink:href="#aG"/><use transform="matrix(0.008173828125000001,0,0,0.008173828125000001,10.846669921875002,0)" xlink:href="#aH"/><use transform="matrix(0.008173828125000001,0,0,0.008173828125000001,17.254951171875003,0)" xlink:href="#aI"/><use transform="matrix(0.008173828125000001,0,0,0.008173828125000001,27.521279296875004,0)" xlink:href="#aJ"/><use transform="matrix(0.008173828125000001,0,0,0.008173828125000001,37.37074218750001,0)" xlink:href="#aK"/><use transform="matrix(0.008173828125000001,0,0,0.008173828125000001,47.34281250000001,0)" xlink:href="#aL"/><use transform="matrix(0.008173828125000001,0,0,0.008173828125000001,56.71819335937501,0)" xlink:href="#aL"/></g><path d="M750-1118v229H516V0H217v-889H20v-229h197v-86c0-238 156-356 363-356 94 0 178 20 215 31l-54 226c-25-7-61-15-100-15-123-3-131 84-125 200h234" id="aM"/><path d="M428-1490V0H128v-1490h300" id="aN"/><path d="M361 0L31-1118h315c68 295 127 523 188 845 63-317 128-551 199-845h276c71 296 131 525 196 846 57-321 119-552 186-846h319L1378 0h-305c-73-261-148-486-204-771C813-484 740-261 666 0H361" id="aO"/><g id="i"><use transform="matrix(0.008173828125000001,0,0,0.008173828125000001,0,0)" xlink:href="#aM"/><use transform="matrix(0.008173828125000001,0,0,0.008173828125000001,6.661669921875001,0)" xlink:href="#aN"/><use transform="matrix(0.008173828125000001,0,0,0.008173828125000001,11.198144531250001,0)" xlink:href="#aI"/><use transform="matrix(0.008173828125000001,0,0,0.008173828125000001,21.235605468750002,0)" xlink:href="#aO"/></g><path d="M428-647V0H128v-1490h294v586c65-146 175-228 341-228 232 0 385 159 385 421V0H847v-659c0-139-76-222-202-222-128 0-217 86-217 234" id="aP"/><path d="M440 22C227 22 68-92 68-313c0-250 202-322 422-343 195-21 271-24 271-105 0-95-63-149-175-149-116 0-187 57-211 129l-275-46c57-194 237-305 487-305 240 0 474 108 474 379V0H777v-155h-10C713-51 605 22 440 22zm85-211c140 0 238-93 238-211v-121c-37 26-156 42-222 51-111 16-185 59-185 149 0 87 70 132 169 132" id="aQ"/><path d="M128 418v-1536h295v188h14c41-89 129-202 319-202 248 0 453 193 453 575 0 372-197 576-455 576-183 0-275-108-317-198h-9v597H128zm534-640c156 0 240-139 240-336 0-196-83-334-240-334-154 0-241 131-241 334 0 202 88 336 241 336" id="aR"/><g id="j"><use transform="matrix(0.008173828125000001,0,0,0.008173828125000001,0,0)" xlink:href="#aL"/><use transform="matrix(0.008173828125000001,0,0,0.008173828125000001,9.375380859375001,0)" xlink:href="#aP"/><use transform="matrix(0.008173828125000001,0,0,0.008173828125000001,19.797011718750003,0)" xlink:href="#aQ"/><use transform="matrix(0.008173828125000001,0,0,0.008173828125000001,29.515693359375003,0)" xlink:href="#aR"/><use transform="matrix(0.008173828125000001,0,0,0.008173828125000001,40.068105468750005,0)" xlink:href="#aK"/><use transform="matrix(0.008173828125000001,0,0,0.008173828125000001,50.04017578125001,0)" xlink:href="#aL"/></g><g id="k"><use transform="matrix(0.006357421875000001,0,0,0.006357421875000001,0,0)" xlink:href="#ak"/><use transform="matrix(0.006357421875000001,0,0,0.006357421875000001,9.688710937500002,0)" xlink:href="#al"/><use transform="matrix(0.006357421875000001,0,0,0.006357421875000001,16.561083984375003,0)" xlink:href="#am"/><use transform="matrix(0.006357421875000001,0,0,0.006357421875000001,24.151845703125005,0)" xlink:href="#an"/></g><g id="l"><use transform="matrix(0.006357421875000001,0,0,0.006357421875000001,0,0)" xlink:href="#ao"/><use transform="matrix(0.006357421875000001,0,0,0.006357421875000001,8.188359375000001,0)" xlink:href="#am"/><use transform="matrix(0.006357421875000001,0,0,0.006357421875000001,15.779121093750001,0)" xlink:href="#ap"/><use transform="matrix(0.006357421875000001,0,0,0.006357421875000001,20.038593750000004,0)" xlink:href="#an"/><use transform="matrix(0.006357421875000001,0,0,0.006357421875000001,25.143603515625003,0)" xlink:href="#aq"/><use transform="matrix(0.006357421875000001,0,0,0.006357421875000001,28.296884765625002,0)" xlink:href="#am"/><use transform="matrix(0.006357421875000001,0,0,0.006357421875000001,35.633349609375,0)" xlink:href="#ar"/><use transform="matrix(0.006357421875000001,0,0,0.006357421875000001,42.887167968750006,0)" xlink:href="#as"/><use transform="matrix(0.006357421875000001,0,0,0.006357421875000001,50.198203125000006,0)" xlink:href="#at"/></g><g id="m"><use transform="matrix(0.006357421875000001,0,0,0.006357421875000001,0,0)" xlink:href="#au"/><use transform="matrix(0.006357421875000001,0,0,0.006357421875000001,4.748994140625,0)" xlink:href="#ao"/><use transform="matrix(0.006357421875000001,0,0,0.006357421875000001,13.128076171875001,0)" xlink:href="#av"/><use transform="matrix(0.006357421875000001,0,0,0.006357421875000001,21.66609375,0)" xlink:href="#aw"/><use transform="matrix(0.006357421875000001,0,0,0.006357421875000001,31.380234375000004,0)" xlink:href="#ax"/></g><g id="n"><use transform="matrix(0.006357421875000001,0,0,0.006357421875000001,0,0)" xlink:href="#ay"/><use transform="matrix(0.006357421875000001,0,0,0.006357421875000001,8.436298828125,0)" xlink:href="#aw"/><use transform="matrix(0.006357421875000001,0,0,0.006357421875000001,18.150439453125003,0)" xlink:href="#az"/><use transform="matrix(0.006357421875000001,0,0,0.006357421875000001,26.669384765625004,0)" xlink:href="#aA"/><use transform="matrix(0.006357421875000001,0,0,0.006357421875000001,34.476298828125,0)" xlink:href="#aA"/><use transform="matrix(0.006357421875000001,0,0,0.006357421875000001,42.283212890625,0)" xlink:href="#al"/><use transform="matrix(0.006357421875000001,0,0,0.006357421875000001,49.1555859375,0)" xlink:href="#ap"/></g><g id="o"><use transform="matrix(0.006357421875000001,0,0,0.006357421875000001,0,0)" xlink:href="#aB"/><use transform="matrix(0.006357421875000001,0,0,0.006357421875000001,7.361894531250001,0)" xlink:href="#aB"/><use transform="matrix(0.006357421875000001,0,0,0.006357421875000001,14.723789062500002,0)" xlink:href="#aC"/></g><g id="p"><use transform="matrix(0.006357421875000001,0,0,0.006357421875000001,0,0)" xlink:href="#aD"/><use transform="matrix(0.006357421875000001,0,0,0.006357421875000001,3.4965820312500004,0)" xlink:href="#aE"/><use transform="matrix(0.006357421875000001,0,0,0.006357421875000001,11.1890625,0)" xlink:href="#ap"/><use transform="matrix(0.006357421875000001,0,0,0.006357421875000001,15.321386718750002,0)" xlink:href="#am"/><use transform="matrix(0.006357421875000001,0,0,0.006357421875000001,22.9121484375,0)" xlink:href="#aF"/><use transform="matrix(0.006357421875000001,0,0,0.006357421875000001,30.897070312500002,0)" xlink:href="#an"/><use transform="matrix(0.006357421875000001,0,0,0.006357421875000001,35.798642578125005,0)" xlink:href="#as"/><use transform="matrix(0.006357421875000001,0,0,0.006357421875000001,43.109677734375005,0)" xlink:href="#ap"/><use transform="matrix(0.006357421875000001,0,0,0.006357421875000001,47.36915039062501,0)" xlink:href="#aq"/><use transform="matrix(0.006357421875000001,0,0,0.006357421875000001,50.52243164062501,0)" xlink:href="#aA"/><use transform="matrix(0.006357421875000001,0,0,0.006357421875000001,58.32934570312501,0)" xlink:href="#aE"/></g><path d="M180 0v-1490h224l606 953c40 63 108 177 176 312-27-437-7-821-13-1265h190V0h-226C860-448 622-778 356-1262c27 476 11 792 15 1262H180" id="aS"/><path d="M158 0v-1118h175l1 205c55-151 181-225 313-225 147 0 245 90 285 228 53-141 190-228 352-228 194 0 352 125 352 384V0h-181v-749c0-161-105-225-225-225-151 0-243 103-243 244V0H807v-767c0-124-93-207-219-207-131 0-250 92-250 270V0H158" id="aT"/><path d="M126 0v-134l627-806v-11H146v-167h839v143L376-178v11h629V0H126" id="aU"/><path d="M692-1560L212 224H46l480-1784h166" id="aV"/><path d="M783 20c-382 0-661-292-661-764 0-473 279-766 661-766 302 0 548 182 601 489h-190c-42-204-217-313-411-313-268 0-476 208-476 590 0 381 209 588 476 588 195 0 369-110 411-313h190c-52 303-296 489-601 489" id="aW"/><g id="q"><use transform="matrix(0.008680555555555556,0,0,0.008680555555555556,0,0)" xlink:href="#aS"/><use transform="matrix(0.008680555555555556,0,0,0.008680555555555556,13.394097222222223,0)" xlink:href="#aA"/><use transform="matrix(0.008680555555555556,0,0,0.008680555555555556,24.053819444444446,0)" xlink:href="#an"/><use transform="matrix(0.008680555555555556,0,0,0.008680555555555556,31.024305555555557,0)" xlink:href="#aT"/><use transform="matrix(0.008680555555555556,0,0,0.008680555555555556,46.597222222222236,0)" xlink:href="#as"/><use transform="matrix(0.008680555555555556,0,0,0.008680555555555556,56.579861111111114,0)" xlink:href="#at"/><use transform="matrix(0.008680555555555556,0,0,0.008680555555555556,60.88541666666667,0)" xlink:href="#aq"/><use transform="matrix(0.008680555555555556,0,0,0.008680555555555556,65.19097222222223,0)" xlink:href="#aU"/><use transform="matrix(0.008680555555555556,0,0,0.008680555555555556,74.74826388888889,0)" xlink:href="#am"/><use transform="matrix(0.008680555555555556,0,0,0.008680555555555556,85.11284722222221,0)" xlink:href="#aV"/><use transform="matrix(0.008680555555555556,0,0,0.008680555555555556,91.51909722222221,0)" xlink:href="#aW"/><use transform="matrix(0.008680555555555556,0,0,0.008680555555555556,104.50520833333333,0)" xlink:href="#at"/><use transform="matrix(0.008680555555555556,0,0,0.008680555555555556,108.81076388888887,0)" xlink:href="#am"/><use transform="matrix(0.008680555555555556,0,0,0.008680555555555556,119.34895833333333,0)" xlink:href="#as"/><use transform="matrix(0.008680555555555556,0,0,0.008680555555555556,129.33159722222223,0)" xlink:href="#aE"/></g><path d="M180 0v-1490h908v168H370v486h669v168H370v500h727V0H180" id="aX"/><path d="M65 0l393-574-370-544h210c88 136 192 297 267 435 67-142 176-302 264-435h206L661-564 1053 0H844c-94-144-206-310-287-458C484-308 366-142 273 0H65" id="aY"/><path d="M613 24c-304 0-509-231-509-576 0-350 205-580 509-580 216 0 392 114 453 309l-173 49c-33-115-133-197-280-197-223 0-326 196-326 419 0 220 103 415 326 415 150 0 252-85 285-206l172 49C1010-95 832 24 613 24" id="aZ"/><g id="r"><use transform="matrix(0.008680555555555556,0,0,0.008680555555555556,0,0)" xlink:href="#aX"/><use transform="matrix(0.008680555555555556,0,0,0.008680555555555556,10.68576388888889,0)" xlink:href="#aY"/><use transform="matrix(0.008680555555555556,0,0,0.008680555555555556,20.73784722222222,0)" xlink:href="#ap"/><use transform="matrix(0.008680555555555556,0,0,0.008680555555555556,26.553819444444443,0)" xlink:href="#an"/><use transform="matrix(0.008680555555555556,0,0,0.008680555555555556,33.24652777777778,0)" xlink:href="#as"/><use transform="matrix(0.008680555555555556,0,0,0.008680555555555556,43.22916666666667,0)" xlink:href="#aZ"/><use transform="matrix(0.008680555555555556,0,0,0.008680555555555556,53.38541666666667,0)" xlink:href="#ap"/></g><path d="M180 0v-1490h190c0 262 1 526-3 784 217-279 467-523 702-784h249L716-845 1319 0h-225L585-716 370-489V0H180" id="ba"/><path d="M140 405l46-156c120 36 205 19 263-150l32-93L54-1118h197c107 313 237 620 324 950 87-331 219-637 326-950h196L606 167c-68 178-176 259-334 259-64 0-113-12-132-21" id="bb"/><g id="s"><use transform="matrix(0.008680555555555556,0,0,0.008680555555555556,0,0)" xlink:href="#ba"/><use transform="matrix(0.008680555555555556,0,0,0.008680555555555556,11.241319444444445,0)" xlink:href="#am"/><use transform="matrix(0.008680555555555556,0,0,0.008680555555555556,21.258680555555557,0)" xlink:href="#bb"/></g><path d="M180 0v-1490h901v168H370v510h643v168H370V0H180" id="bc"/><path d="M537 14c-226 0-379-139-379-422v-710h180v695c0 172 97 275 253 275 160 0 281-109 281-300v-670h181V0H879v-209C806-46 684 14 537 14" id="bd"/><g id="t"><use transform="matrix(0.008680555555555556,0,0,0.008680555555555556,0,0)" xlink:href="#bc"/><use transform="matrix(0.008680555555555556,0,0,0.008680555555555556,9.791666666666668,0)" xlink:href="#am"/><use transform="matrix(0.008680555555555556,0,0,0.008680555555555556,20.329861111111114,0)" xlink:href="#as"/><use transform="matrix(0.008680555555555556,0,0,0.008680555555555556,30.312500000000004,0)" xlink:href="#ap"/><use transform="matrix(0.008680555555555556,0,0,0.008680555555555556,36.12847222222223,0)" xlink:href="#bd"/><use transform="matrix(0.008680555555555556,0,0,0.008680555555555556,46.64062500000001,0)" xlink:href="#an"/><use transform="matrix(0.008680555555555556,0,0,0.008680555555555556,53.03819444444446,0)" xlink:href="#am"/><use transform="matrix(0.008680555555555556,0,0,0.008680555555555556,63.4027777777778,0)" xlink:href="#al"/></g><g id="u"><use transform="matrix(0.010091145833333334,0,0,0.010091145833333334,0,0)" xlink:href="#ak"/><use transform="matrix(0.010091145833333334,0,0,0.010091145833333334,15.37890625,0)" xlink:href="#al"/><use transform="matrix(0.010091145833333334,0,0,0.010091145833333334,26.287434895833336,0)" xlink:href="#am"/><use transform="matrix(0.010091145833333334,0,0,0.010091145833333334,38.336263020833336,0)" xlink:href="#an"/></g><path d="M180 0v-1490h510c348 0 508 209 508 474 0 266-160 477-507 477H370V0H180zm190-706h312c236 0 327-133 327-310 0-176-91-307-329-307H370v617" id="be"/><path d="M158 418v-1536h174v179h20c37-59 106-193 324-193 279 0 474 222 474 576 0 356-194 580-473 580-213 0-288-135-325-197h-14v591H158zm492-555c209 0 317-186 317-421 0-232-105-413-317-413-206 0-314 166-314 413 0 249 111 421 314 421" id="bf"/><g id="v"><use transform="matrix(0.010091145833333334,0,0,0.010091145833333334,0,0)" xlink:href="#be"/><use transform="matrix(0.010091145833333334,0,0,0.010091145833333334,13.19921875,0)" xlink:href="#an"/><use transform="matrix(0.010091145833333334,0,0,0.010091145833333334,20.636393229166668,0)" xlink:href="#aA"/><use transform="matrix(0.010091145833333334,0,0,0.010091145833333334,33.0283203125,0)" xlink:href="#aT"/><use transform="matrix(0.010091145833333334,0,0,0.010091145833333334,51.1318359375,0)" xlink:href="#bf"/><use transform="matrix(0.010091145833333334,0,0,0.010091145833333334,63.78613281250001,0)" xlink:href="#ap"/></g><path fill="#333" d="M52 0l541-1490h220L1361 0h-200l-149-416H398L254 0H52zm404-582h497c-103-290-145-390-251-756-108 377-145 460-246 756" id="bg"/><path fill="#333" d="M537 14c-226 0-379-139-379-422v-710h180v695c0 172 97 275 253 275 160 0 281-109 281-300v-670h181V0H879v-209C806-46 684 14 537 14" id="bh"/><path fill="#333" d="M611 442c-248 0-391-105-460-228l146-94c47 65 117 165 314 165 178 0 307-82 307-266v-224h-17C863-141 792-18 576-18c-268 0-472-195-472-546 0-346 197-568 476-568 216 0 288 133 326 193h17v-179h175V29c0 289-215 413-487 413zm-5-620c203 0 314-146 314-390 0-237-108-403-314-403-213 0-319 180-319 403 0 230 109 390 319 390" id="bi"/><path fill="#333" d="M158 0v-1118h175l1 205c55-151 181-225 313-225 147 0 245 90 285 228 53-141 190-228 352-228 194 0 352 125 352 384V0h-181v-749c0-161-105-225-225-225-151 0-243 103-243 244V0H807v-767c0-124-93-207-219-207-131 0-250 92-250 270V0H158" id="bj"/><path fill="#333" d="M628 24c-324 0-524-230-524-574 0-343 198-582 503-582 237 0 487 146 487 559v75H286c9 234 145 362 343 362 132 0 231-58 273-172l174 48C1024-91 857 24 628 24zM287-650h624c-17-190-120-322-304-322-192 0-309 151-320 322" id="bk"/><path fill="#333" d="M338-670V0H158v-1118h173l1 207c72-158 192-221 342-221 226 0 378 139 378 422V0H872v-695c0-172-96-275-252-275-161 0-282 109-282 300" id="bl"/><path fill="#333" d="M598-1118v154H368v674c0 100 37 144 132 144 23 0 62-6 92-12L629-6c-37 13-88 20-134 20-193 0-307-107-307-290v-688H20v-154h168v-266h180v266h230" id="bm"/><path fill="#333" d="M577 24c-279 0-473-224-473-580 0-354 195-576 474-576 218 0 287 134 324 193h14v-551h180V0H922v-173h-20C865-111 790 24 577 24zm27-161c203 0 314-172 314-421 0-247-108-413-314-413-212 0-317 181-317 413 0 235 108 421 317 421" id="bn"/><g id="w"><use transform="matrix(0.010091145833333334,0,0,0.010091145833333334,0,0)" xlink:href="#bg"/><use transform="matrix(0.010091145833333334,0,0,0.010091145833333334,14.2587890625,0)" xlink:href="#bh"/><use transform="matrix(0.010091145833333334,0,0,0.010091145833333334,26.479166666666668,0)" xlink:href="#bi"/><use transform="matrix(0.010091145833333334,0,0,0.010091145833333334,39.153645833333336,0)" xlink:href="#bj"/><use transform="matrix(0.010091145833333334,0,0,0.010091145833333334,57.257161458333336,0)" xlink:href="#bk"/><use transform="matrix(0.010091145833333334,0,0,0.010091145833333334,69.30598958333334,0)" xlink:href="#bl"/><use transform="matrix(0.010091145833333334,0,0,0.010091145833333334,81.51627604166667,0)" xlink:href="#bm"/><use transform="matrix(0.010091145833333334,0,0,0.010091145833333334,88.07552083333331,0)" xlink:href="#bk"/><use transform="matrix(0.010091145833333334,0,0,0.010091145833333334,100.12434895833331,0)" xlink:href="#bn"/></g><path fill="#333" d="M180 0v-1490h510c348 0 508 209 508 474 0 266-160 477-507 477H370V0H180zm190-706h312c236 0 327-133 327-310 0-176-91-307-329-307H370v617" id="bo"/><path fill="#333" d="M158 0v-1118h174v172h12c41-113 157-188 290-188 26 0 70 2 91 3v181c-11-2-60-10-108-10-161 0-279 109-279 260V0H158" id="bp"/><path fill="#333" d="M613 24c-304 0-509-231-509-576 0-350 205-580 509-580 305 0 511 230 511 580 0 345-206 576-511 576zm0-161c226 0 329-195 329-415 0-222-103-419-329-419-223 0-326 196-326 419 0 220 103 415 326 415" id="bq"/><path fill="#333" d="M158 418v-1536h174v179h20c37-59 106-193 324-193 279 0 474 222 474 576 0 356-194 580-473 580-213 0-288-135-325-197h-14v591H158zm492-555c209 0 317-186 317-421 0-232-105-413-317-413-206 0-314 166-314 413 0 249 111 421 314 421" id="br"/><g id="x"><use transform="matrix(0.010091145833333334,0,0,0.010091145833333334,0,0)" xlink:href="#bo"/><use transform="matrix(0.010091145833333334,0,0,0.010091145833333334,13.19921875,0)" xlink:href="#bp"/><use transform="matrix(0.010091145833333334,0,0,0.010091145833333334,20.636393229166668,0)" xlink:href="#bq"/><use transform="matrix(0.010091145833333334,0,0,0.010091145833333334,33.0283203125,0)" xlink:href="#bj"/><use transform="matrix(0.010091145833333334,0,0,0.010091145833333334,51.1318359375,0)" xlink:href="#br"/><use transform="matrix(0.010091145833333334,0,0,0.010091145833333334,63.78613281250001,0)" xlink:href="#bm"/></g><path fill="#333" d="M180 0v-1490h190v1322h690V0H180" id="bs"/><path fill="#333" d="M180 0v-1490h270l367 940c28 72 75 218 110 339 35-117 81-264 110-339l362-940h271V0h-187c2-448-5-837 7-1287-157 497-311 829-483 1287H842C666-458 514-784 354-1284c12 438 5 843 7 1284H180" id="bt"/><g id="y"><use transform="matrix(0.010091145833333334,0,0,0.010091145833333334,0,0)" xlink:href="#bs"/><use transform="matrix(0.010091145833333334,0,0,0.010091145833333334,11.685546875,0)" xlink:href="#bs"/><use transform="matrix(0.010091145833333334,0,0,0.010091145833333334,23.37109375,0)" xlink:href="#bt"/></g><path fill="#333" d="M798-719v166H144v-166h654" id="bu"/><path fill="#333" d="M98-1322v-168h1126v168H757V0H567v-1322H98" id="bv"/><path fill="#333" d="M471 26C259 26 90-98 90-318c0-256 228-303 435-329 202-27 287-16 287-108 0-139-79-219-234-219-161 0-248 86-283 164l-173-57c86-203 278-265 451-265 150 0 419 46 419 395V0H815v-152h-12C765-73 660 26 471 26zm31-159c199 0 310-134 310-271v-155c-30 35-226 55-295 64-131 17-246 59-246 186 0 116 97 176 231 176" id="bw"/><path fill="#333" d="M158 0v-1118h180V0H158zm91-1301c-68 0-125-53-125-119s57-119 125-119c69 0 126 53 126 119s-57 119-126 119" id="bx"/><g id="z"><use transform="matrix(0.008680555555555556,0,0,0.008680555555555556,0,0)" xlink:href="#bo"/><use transform="matrix(0.008680555555555556,0,0,0.008680555555555556,11.354166666666668,0)" xlink:href="#bp"/><use transform="matrix(0.008680555555555556,0,0,0.008680555555555556,17.751736111111114,0)" xlink:href="#bk"/><use transform="matrix(0.008680555555555556,0,0,0.008680555555555556,28.11631944444445,0)" xlink:href="#bu"/><use transform="matrix(0.008680555555555556,0,0,0.008680555555555556,34.98263888888889,0)" xlink:href="#bv"/><use transform="matrix(0.008680555555555556,0,0,0.008680555555555556,45.45138888888889,0)" xlink:href="#bp"/><use transform="matrix(0.008680555555555556,0,0,0.008680555555555556,52.144097222222236,0)" xlink:href="#bw"/><use transform="matrix(0.008680555555555556,0,0,0.008680555555555556,62.126736111111114,0)" xlink:href="#bx"/><use transform="matrix(0.008680555555555556,0,0,0.008680555555555556,66.43229166666667,0)" xlink:href="#bl"/><use transform="matrix(0.008680555555555556,0,0,0.008680555555555556,76.93576388888889,0)" xlink:href="#bk"/><use transform="matrix(0.008680555555555556,0,0,0.008680555555555556,87.30034722222223,0)" xlink:href="#bn"/></g><path fill="#333" d="M57 0l534-763-501-727h220c122 187 296 416 391 605 94-191 272-419 396-605h215L811-770 1340 0h-219C986-204 811-426 699-640 588-430 407-202 273 0H57" id="by"/><path fill="#333" d="M789 20c-398 0-667-293-667-764 0-473 273-766 655-766 315 0 558 198 612 487h-196c-61-191-204-311-415-311-262 0-471 207-471 590 0 380 208 588 482 588 249 0 420-165 425-427H828v-166h572v163c0 370-256 606-611 606" id="bz"/><g id="A"><use transform="matrix(0.008680555555555556,0,0,0.008680555555555556,0,0)" xlink:href="#by"/><use transform="matrix(0.008680555555555556,0,0,0.008680555555555556,11.519097222222223,0)" xlink:href="#bz"/></g><path fill="#333" d="M180 0v-1490h528c311 0 458 177 458 395 0 191-114 278-244 313v14c139 9 302 137 302 371 0 225-148 397-499 397H180zm190-168h350c232 0 321-102 321-231 0-149-120-277-311-277H370v508zm0-668h328c160 0 286-101 286-255 0-129-87-231-280-231H370v486" id="bA"/><path fill="#333" d="M538 24C308 24 148-78 108-271l171-41c32 123 123 178 257 178 156 0 256-77 256-169 0-77-54-128-164-154l-186-44c-203-48-300-148-300-305 0-192 176-326 414-326 230 0 351 112 402 269l-163 42c-31-80-94-158-238-158-133 0-233 69-233 162 0 83 57 129 188 160l169 40c203 48 298 149 298 302 0 196-179 339-441 339" id="bB"/><g id="B"><use transform="matrix(0.008680555555555556,0,0,0.008680555555555556,0,0)" xlink:href="#bA"/><use transform="matrix(0.008680555555555556,0,0,0.008680555555555556,11.631944444444445,0)" xlink:href="#bq"/><use transform="matrix(0.008680555555555556,0,0,0.008680555555555556,22.291666666666668,0)" xlink:href="#bq"/><use transform="matrix(0.008680555555555556,0,0,0.008680555555555556,32.95138888888889,0)" xlink:href="#bB"/><use transform="matrix(0.008680555555555556,0,0,0.008680555555555556,42.33506944444444,0)" xlink:href="#bm"/></g><path fill="#333" d="M338-1490V0H158v-1490h180" id="bC"/><g id="C"><use transform="matrix(0.008680555555555556,0,0,0.008680555555555556,0,0)" xlink:href="#bt"/><use transform="matrix(0.008680555555555556,0,0,0.008680555555555556,16.05902777777778,0)" xlink:href="#bq"/><use transform="matrix(0.008680555555555556,0,0,0.008680555555555556,26.71875,0)" xlink:href="#bn"/><use transform="matrix(0.008680555555555556,0,0,0.008680555555555556,37.60416666666667,0)" xlink:href="#bk"/><use transform="matrix(0.008680555555555556,0,0,0.008680555555555556,47.96875000000001,0)" xlink:href="#bC"/></g><path fill="#3a414a" d="M180 0v-1490h908v168H370v486h669v168H370v500h727V0H180" id="bD"/><path fill="#3a414a" d="M158 0v-1118h175l1 205c55-151 181-225 313-225 147 0 245 90 285 228 53-141 190-228 352-228 194 0 352 125 352 384V0h-181v-749c0-161-105-225-225-225-151 0-243 103-243 244V0H807v-767c0-124-93-207-219-207-131 0-250 92-250 270V0H158" id="bE"/><path fill="#3a414a" d="M677 24c-213 0-288-135-325-197h-20V0H158v-1490h180v551h14c37-59 106-193 324-193 279 0 474 222 474 576 0 356-194 580-473 580zm-27-161c209 0 317-186 317-421 0-232-105-413-317-413-206 0-314 166-314 413 0 249 111 421 314 421" id="bF"/><path fill="#3a414a" d="M628 24c-324 0-524-230-524-574 0-343 198-582 503-582 237 0 487 146 487 559v75H286c9 234 145 362 343 362 132 0 231-58 273-172l174 48C1024-91 857 24 628 24zM287-650h624c-17-190-120-322-304-322-192 0-309 151-320 322" id="bG"/><path fill="#3a414a" d="M577 24c-279 0-473-224-473-580 0-354 195-576 474-576 218 0 287 134 324 193h14v-551h180V0H922v-173h-20C865-111 790 24 577 24zm27-161c203 0 314-172 314-421 0-247-108-413-314-413-212 0-317 181-317 413 0 235 108 421 317 421" id="bH"/><g id="D"><use transform="matrix(0.008680555555555556,0,0,0.008680555555555556,0,0)" xlink:href="#bD"/><use transform="matrix(0.008680555555555556,0,0,0.008680555555555556,10.68576388888889,0)" xlink:href="#bE"/><use transform="matrix(0.008680555555555556,0,0,0.008680555555555556,26.258680555555557,0)" xlink:href="#bF"/><use transform="matrix(0.008680555555555556,0,0,0.008680555555555556,37.14409722222223,0)" xlink:href="#bG"/><use transform="matrix(0.008680555555555556,0,0,0.008680555555555556,47.508680555555564,0)" xlink:href="#bH"/><use transform="matrix(0.008680555555555556,0,0,0.008680555555555556,58.39409722222222,0)" xlink:href="#bH"/><use transform="matrix(0.008680555555555556,0,0,0.008680555555555556,69.2795138888889,0)" xlink:href="#bG"/><use transform="matrix(0.008680555555555556,0,0,0.008680555555555556,79.64409722222223,0)" xlink:href="#bH"/></g><path fill="#3a414a" d="M600 0L52-1490h200c166 485 304 806 458 1336 156-533 285-846 449-1336h202L819 0H600" id="bI"/><path fill="#3a414a" d="M613 24c-304 0-509-231-509-576 0-350 205-580 509-580 216 0 392 114 453 309l-173 49c-33-115-133-197-280-197-223 0-326 196-326 419 0 220 103 415 326 415 150 0 252-85 285-206l172 49C1010-95 832 24 613 24" id="bJ"/><path fill="#3a414a" d="M598-1118v154H368v674c0 100 37 144 132 144 23 0 62-6 92-12L629-6c-37 13-88 20-134 20-193 0-307-107-307-290v-688H20v-154h168v-266h180v266h230" id="bK"/><path fill="#3a414a" d="M613 24c-304 0-509-231-509-576 0-350 205-580 509-580 305 0 511 230 511 580 0 345-206 576-511 576zm0-161c226 0 329-195 329-415 0-222-103-419-329-419-223 0-326 196-326 419 0 220 103 415 326 415" id="bL"/><path fill="#3a414a" d="M158 0v-1118h174v172h12c41-113 157-188 290-188 26 0 70 2 91 3v181c-11-2-60-10-108-10-161 0-279 109-279 260V0H158" id="bM"/><g id="E"><use transform="matrix(0.008680555555555556,0,0,0.008680555555555556,0,0)" xlink:href="#bI"/><use transform="matrix(0.008680555555555556,0,0,0.008680555555555556,11.362847222222221,0)" xlink:href="#bG"/><use transform="matrix(0.008680555555555556,0,0,0.008680555555555556,21.727430555555557,0)" xlink:href="#bJ"/><use transform="matrix(0.008680555555555556,0,0,0.008680555555555556,31.883680555555557,0)" xlink:href="#bK"/><use transform="matrix(0.008680555555555556,0,0,0.008680555555555556,37.52604166666667,0)" xlink:href="#bL"/><use transform="matrix(0.008680555555555556,0,0,0.008680555555555556,48.18576388888889,0)" xlink:href="#bM"/></g><path fill="#3a414a" d="M180 0v-1490h528c311 0 458 177 458 395 0 191-114 278-244 313v14c139 9 302 137 302 371 0 225-148 397-499 397H180zm190-168h350c232 0 321-102 321-231 0-149-120-277-311-277H370v508zm0-668h328c160 0 286-101 286-255 0-129-87-231-280-231H370v486" id="bN"/><path fill="#3a414a" d="M471 26C259 26 90-98 90-318c0-256 228-303 435-329 202-27 287-16 287-108 0-139-79-219-234-219-161 0-248 86-283 164l-173-57c86-203 278-265 451-265 150 0 419 46 419 395V0H815v-152h-12C765-73 660 26 471 26zm31-159c199 0 310-134 310-271v-155c-30 35-226 55-295 64-131 17-246 59-246 186 0 116 97 176 231 176" id="bO"/><path fill="#3a414a" d="M538 24C308 24 148-78 108-271l171-41c32 123 123 178 257 178 156 0 256-77 256-169 0-77-54-128-164-154l-186-44c-203-48-300-148-300-305 0-192 176-326 414-326 230 0 351 112 402 269l-163 42c-31-80-94-158-238-158-133 0-233 69-233 162 0 83 57 129 188 160l169 40c203 48 298 149 298 302 0 196-179 339-441 339" id="bP"/><g id="F"><use transform="matrix(0.008680555555555556,0,0,0.008680555555555556,0,0)" xlink:href="#bN"/><use transform="matrix(0.008680555555555556,0,0,0.008680555555555556,11.631944444444445,0)" xlink:href="#bO"/><use transform="matrix(0.008680555555555556,0,0,0.008680555555555556,21.614583333333336,0)" xlink:href="#bP"/><use transform="matrix(0.008680555555555556,0,0,0.008680555555555556,30.998263888888893,0)" xlink:href="#bG"/></g><g id="G"><use transform="matrix(0.008680555555555556,0,0,0.008680555555555556,0,0)" xlink:href="#aW"/><use transform="matrix(0.008680555555555556,0,0,0.008680555555555556,12.986111111111112,0)" xlink:href="#bd"/><use transform="matrix(0.008680555555555556,0,0,0.008680555555555556,23.498263888888893,0)" xlink:href="#al"/><use transform="matrix(0.008680555555555556,0,0,0.008680555555555556,32.88194444444445,0)" xlink:href="#ap"/><use transform="matrix(0.008680555555555556,0,0,0.008680555555555556,38.52430555555556,0)" xlink:href="#aA"/><use transform="matrix(0.008680555555555556,0,0,0.008680555555555556,49.18402777777778,0)" xlink:href="#aT"/><use transform="matrix(0.008680555555555556,0,0,0.008680555555555556,64.75694444444444,0)" xlink:href="#am"/><use transform="matrix(0.008680555555555556,0,0,0.008680555555555556,75.12152777777777,0)" xlink:href="#an"/></g><path d="M577 24c-279 0-473-224-473-580 0-354 195-576 474-576 218 0 287 134 324 193h14v-551h180V0H922v-173h-20C865-111 790 24 577 24zm27-161c203 0 314-172 314-421 0-247-108-413-314-413-212 0-317 181-317 413 0 235 108 421 317 421" id="bQ"/><g id="H"><use transform="matrix(0.008680555555555556,0,0,0.008680555555555556,0,0)" xlink:href="#be"/><use transform="matrix(0.008680555555555556,0,0,0.008680555555555556,11.258680555555559,0)" xlink:href="#am"/><use transform="matrix(0.008680555555555556,0,0,0.008680555555555556,21.623263888888893,0)" xlink:href="#an"/><use transform="matrix(0.008680555555555556,0,0,0.008680555555555556,28.31597222222223,0)" xlink:href="#al"/><use transform="matrix(0.008680555555555556,0,0,0.008680555555555556,37.699652777777786,0)" xlink:href="#aA"/><use transform="matrix(0.008680555555555556,0,0,0.008680555555555556,48.35937500000001,0)" xlink:href="#aE"/><use transform="matrix(0.008680555555555556,0,0,0.008680555555555556,58.86284722222222,0)" xlink:href="#as"/><use transform="matrix(0.008680555555555556,0,0,0.008680555555555556,68.84548611111111,0)" xlink:href="#at"/><use transform="matrix(0.008680555555555556,0,0,0.008680555555555556,73.15104166666667,0)" xlink:href="#aq"/><use transform="matrix(0.008680555555555556,0,0,0.008680555555555556,77.45659722222223,0)" xlink:href="#aU"/><use transform="matrix(0.008680555555555556,0,0,0.008680555555555556,87.01388888888889,0)" xlink:href="#am"/><use transform="matrix(0.008680555555555556,0,0,0.008680555555555556,97.37847222222221,0)" xlink:href="#bQ"/></g><path d="M645 0H180v-1490h484c435 0 692 280 692 742 0 466-257 748-711 748zM370-168h263c363 0 539-218 539-580 0-358-176-574-521-574H370v1154" id="bR"/><g id="I"><use transform="matrix(0.008680555555555556,0,0,0.008680555555555556,0,0)" xlink:href="#bR"/><use transform="matrix(0.008680555555555556,0,0,0.008680555555555556,12.829861111111112,0)" xlink:href="#as"/><use transform="matrix(0.008680555555555556,0,0,0.008680555555555556,22.8125,0)" xlink:href="#ap"/><use transform="matrix(0.008680555555555556,0,0,0.008680555555555556,28.71527777777778,0)" xlink:href="#as"/></g><g id="J"><use transform="matrix(0.010091145833333334,0,0,0.010091145833333334,0,0)" xlink:href="#ak"/><use transform="matrix(0.010091145833333334,0,0,0.010091145833333334,15.37890625,0)" xlink:href="#al"/><use transform="matrix(0.010091145833333334,0,0,0.010091145833333334,26.287434895833336,0)" xlink:href="#am"/><use transform="matrix(0.010091145833333334,0,0,0.010091145833333334,38.336263020833336,0)" xlink:href="#an"/></g><g id="K"><use transform="matrix(0.010091145833333334,0,0,0.010091145833333334,0,0)" xlink:href="#ak"/><use transform="matrix(0.010091145833333334,0,0,0.010091145833333334,15.37890625,0)" xlink:href="#al"/><use transform="matrix(0.010091145833333334,0,0,0.010091145833333334,26.287434895833336,0)" xlink:href="#am"/><use transform="matrix(0.010091145833333334,0,0,0.010091145833333334,38.336263020833336,0)" xlink:href="#an"/></g><path d="M678-1118v154H420V0H240v-964H20v-154h220v-149c0-194 155-293 318-293 85 0 141 18 168 30l-50 154c-19-6-47-17-97-17-111 0-159 58-159 166v109h258" id="bS"/><g id="L"><use transform="matrix(0.010091145833333334,0,0,0.010091145833333334,0,0)" xlink:href="#aD"/><use transform="matrix(0.010091145833333334,0,0,0.010091145833333334,5.550130208333334,0)" xlink:href="#aE"/><use transform="matrix(0.010091145833333334,0,0,0.010091145833333334,17.760416666666668,0)" xlink:href="#ap"/><use transform="matrix(0.010091145833333334,0,0,0.010091145833333334,24.319661458333336,0)" xlink:href="#am"/><use transform="matrix(0.010091145833333334,0,0,0.010091145833333334,36.368489583333336,0)" xlink:href="#an"/><use transform="matrix(0.010091145833333334,0,0,0.010091145833333334,44.4716796875,0)" xlink:href="#bS"/><use transform="matrix(0.010091145833333334,0,0,0.010091145833333334,51.7978515625,0)" xlink:href="#as"/><use transform="matrix(0.010091145833333334,0,0,0.010091145833333334,63.402669270833336,0)" xlink:href="#aZ"/><use transform="matrix(0.010091145833333334,0,0,0.010091145833333334,75.20930989583334,0)" xlink:href="#am"/></g><path fill="#3a414a" d="M98-1322v-168h1126v168H757V0H567v-1322H98" id="bT"/><path fill="#3a414a" d="M158 418v-1536h174v179h20c37-59 106-193 324-193 279 0 474 222 474 576 0 356-194 580-473 580-213 0-288-135-325-197h-14v591H158zm492-555c209 0 317-186 317-421 0-232-105-413-317-413-206 0-314 166-314 413 0 249 111 421 314 421" id="bU"/><g id="M"><use transform="matrix(0.008680555555555556,0,0,0.008680555555555556,0,0)" xlink:href="#bT"/><use transform="matrix(0.008680555555555556,0,0,0.008680555555555556,10.086805555555555,0)" xlink:href="#bL"/><use transform="matrix(0.008680555555555556,0,0,0.008680555555555556,20.74652777777778,0)" xlink:href="#bU"/></g><path fill="#3a414a" d="M180 0v-1490h190c0 262 1 526-3 784 217-279 467-523 702-784h249L716-845 1319 0h-225L585-716 370-489V0H180" id="bV"/><use transform="matrix(0.008680555555555556,0,0,0.008680555555555556,0,0)" xlink:href="#bV" id="N"/><path fill="#3a414a" d="M645 0H180v-1490h484c435 0 692 280 692 742 0 466-257 748-711 748zM370-168h263c363 0 539-218 539-580 0-358-176-574-521-574H370v1154" id="bW"/><g id="O"><use transform="matrix(0.008680555555555556,0,0,0.008680555555555556,0,0)" xlink:href="#bW"/><use transform="matrix(0.008680555555555556,0,0,0.008680555555555556,12.829861111111112,0)" xlink:href="#bL"/><use transform="matrix(0.008680555555555556,0,0,0.008680555555555556,23.489583333333336,0)" xlink:href="#bJ"/><use transform="matrix(0.008680555555555556,0,0,0.008680555555555556,33.645833333333336,0)" xlink:href="#bP"/></g><path fill="#3a414a" d="M180 0v-1490h901v168H370v510h643v168H370V0H180" id="bX"/><path fill="#3a414a" d="M158 0v-1118h180V0H158zm91-1301c-68 0-125-53-125-119s57-119 125-119c69 0 126 53 126 119s-57 119-126 119" id="bY"/><path fill="#3a414a" d="M338-1490V0H158v-1490h180" id="bZ"/><g id="P"><use transform="matrix(0.008680555555555556,0,0,0.008680555555555556,0,0)" xlink:href="#bX"/><use transform="matrix(0.008680555555555556,0,0,0.008680555555555556,10.494791666666668,0)" xlink:href="#bY"/><use transform="matrix(0.008680555555555556,0,0,0.008680555555555556,14.800347222222223,0)" xlink:href="#bZ"/><use transform="matrix(0.008680555555555556,0,0,0.008680555555555556,19.366319444444443,0)" xlink:href="#bK"/><use transform="matrix(0.008680555555555556,0,0,0.008680555555555556,25.008680555555554,0)" xlink:href="#bG"/><use transform="matrix(0.008680555555555556,0,0,0.008680555555555556,35.373263888888886,0)" xlink:href="#bM"/><use transform="matrix(0.008680555555555556,0,0,0.008680555555555556,41.770833333333336,0)" xlink:href="#bG"/><use transform="matrix(0.008680555555555556,0,0,0.008680555555555556,52.13541666666667,0)" xlink:href="#bH"/></g><path fill="#3a414a" d="M783 20c-382 0-661-292-661-764 0-473 279-766 661-766 302 0 548 182 601 489h-190c-42-204-217-313-411-313-268 0-476 208-476 590 0 381 209 588 476 588 195 0 369-110 411-313h190c-52 303-296 489-601 489" id="ca"/><path fill="#3a414a" d="M537 14c-226 0-379-139-379-422v-710h180v695c0 172 97 275 253 275 160 0 281-109 281-300v-670h181V0H879v-209C806-46 684 14 537 14" id="cb"/><g id="Q"><use transform="matrix(0.008680555555555556,0,0,0.008680555555555556,0,0)" xlink:href="#ca"/><use transform="matrix(0.008680555555555556,0,0,0.008680555555555556,12.986111111111112,0)" xlink:href="#cb"/><use transform="matrix(0.008680555555555556,0,0,0.008680555555555556,23.498263888888893,0)" xlink:href="#bP"/><use transform="matrix(0.008680555555555556,0,0,0.008680555555555556,32.88194444444445,0)" xlink:href="#bK"/><use transform="matrix(0.008680555555555556,0,0,0.008680555555555556,38.52430555555556,0)" xlink:href="#bL"/><use transform="matrix(0.008680555555555556,0,0,0.008680555555555556,49.18402777777778,0)" xlink:href="#bE"/><use transform="matrix(0.008680555555555556,0,0,0.008680555555555556,64.75694444444444,0)" xlink:href="#bG"/><use transform="matrix(0.008680555555555556,0,0,0.008680555555555556,75.12152777777777,0)" xlink:href="#bM"/></g><g id="R"><use transform="matrix(0.008680555555555556,0,0,0.008680555555555556,0,0)" xlink:href="#bH"/><use transform="matrix(0.008680555555555556,0,0,0.008680555555555556,10.885416666666668,0)" xlink:href="#bO"/><use transform="matrix(0.008680555555555556,0,0,0.008680555555555556,20.868055555555557,0)" xlink:href="#bK"/><use transform="matrix(0.008680555555555556,0,0,0.008680555555555556,26.770833333333336,0)" xlink:href="#bO"/></g><path fill="#3a414a" d="M180 0v-1490h190v1322h690V0H180" id="cc"/><path fill="#3a414a" d="M338-670V0H158v-1118h173l1 207c72-158 192-221 342-221 226 0 378 139 378 422V0H872v-695c0-172-96-275-252-275-161 0-282 109-282 300" id="cd"/><path fill="#3a414a" d="M611 442c-248 0-391-105-460-228l146-94c47 65 117 165 314 165 178 0 307-82 307-266v-224h-17C863-141 792-18 576-18c-268 0-472-195-472-546 0-346 197-568 476-568 216 0 288 133 326 193h17v-179h175V29c0 289-215 413-487 413zm-5-620c203 0 314-146 314-390 0-237-108-403-314-403-213 0-319 180-319 403 0 230 109 390 319 390" id="ce"/><g id="S"><use transform="matrix(0.008680555555555556,0,0,0.008680555555555556,0,0)" xlink:href="#cc"/><use transform="matrix(0.008680555555555556,0,0,0.008680555555555556,10.052083333333334,0)" xlink:href="#bG"/><use transform="matrix(0.008680555555555556,0,0,0.008680555555555556,20.59027777777778,0)" xlink:href="#bO"/><use transform="matrix(0.008680555555555556,0,0,0.008680555555555556,30.572916666666668,0)" xlink:href="#bM"/><use transform="matrix(0.008680555555555556,0,0,0.008680555555555556,37.54340277777778,0)" xlink:href="#cd"/><use transform="matrix(0.008680555555555556,0,0,0.008680555555555556,48.046875,0)" xlink:href="#bY"/><use transform="matrix(0.008680555555555556,0,0,0.008680555555555556,52.35243055555556,0)" xlink:href="#cd"/><use transform="matrix(0.008680555555555556,0,0,0.008680555555555556,62.85590277777778,0)" xlink:href="#ce"/></g><g id="T"><use transform="matrix(0.008680555555555556,0,0,0.008680555555555556,0,0)" xlink:href="#bW"/><use transform="matrix(0.008680555555555556,0,0,0.008680555555555556,12.829861111111112,0)" xlink:href="#bO"/><use transform="matrix(0.008680555555555556,0,0,0.008680555555555556,22.8125,0)" xlink:href="#bK"/><use transform="matrix(0.008680555555555556,0,0,0.008680555555555556,28.71527777777778,0)" xlink:href="#bO"/><use transform="matrix(0.008680555555555556,0,0,0.008680555555555556,38.69791666666667,0)" xlink:href="#bF"/><use transform="matrix(0.008680555555555556,0,0,0.008680555555555556,49.75694444444446,0)" xlink:href="#bO"/><use transform="matrix(0.008680555555555556,0,0,0.008680555555555556,59.73958333333334,0)" xlink:href="#bP"/><use transform="matrix(0.008680555555555556,0,0,0.008680555555555556,69.1232638888889,0)" xlink:href="#bG"/></g><g id="U"><use transform="matrix(0.008680555555555556,0,0,0.008680555555555556,0,0)" xlink:href="#bD"/><use transform="matrix(0.008680555555555556,0,0,0.008680555555555556,10.68576388888889,0)" xlink:href="#bE"/><use transform="matrix(0.008680555555555556,0,0,0.008680555555555556,26.258680555555557,0)" xlink:href="#bF"/><use transform="matrix(0.008680555555555556,0,0,0.008680555555555556,37.14409722222223,0)" xlink:href="#bG"/><use transform="matrix(0.008680555555555556,0,0,0.008680555555555556,47.508680555555564,0)" xlink:href="#bH"/></g><g id="V"><use transform="matrix(0.008680555555555556,0,0,0.008680555555555556,0,0)" xlink:href="#bW"/><use transform="matrix(0.008680555555555556,0,0,0.008680555555555556,12.829861111111112,0)" xlink:href="#bO"/><use transform="matrix(0.008680555555555556,0,0,0.008680555555555556,22.8125,0)" xlink:href="#bK"/><use transform="matrix(0.008680555555555556,0,0,0.008680555555555556,28.71527777777778,0)" xlink:href="#bO"/></g><path fill="#3a414a" d="M180 0v-1490h190v644h782v-644h190V0h-190v-678H370V0H180" id="cf"/><path fill="#3a414a" d="M140 405l46-156c120 36 205 19 263-150l32-93L54-1118h197c107 313 237 620 324 950 87-331 219-637 326-950h196L606 167c-68 178-176 259-334 259-64 0-113-12-132-21" id="cg"/><g id="W"><use transform="matrix(0.008680555555555556,0,0,0.008680555555555556,0,0)" xlink:href="#cf"/><use transform="matrix(0.008680555555555556,0,0,0.008680555555555556,13.298611111111112,0)" xlink:href="#cg"/><use transform="matrix(0.008680555555555556,0,0,0.008680555555555556,23.37673611111111,0)" xlink:href="#bF"/><use transform="matrix(0.008680555555555556,0,0,0.008680555555555556,34.26215277777778,0)" xlink:href="#bM"/><use transform="matrix(0.008680555555555556,0,0,0.008680555555555556,41.23263888888889,0)" xlink:href="#bY"/><use transform="matrix(0.008680555555555556,0,0,0.008680555555555556,45.53819444444445,0)" xlink:href="#bH"/></g><path fill="#3a414a" d="M657 26c-323 0-524-166-541-416h195c15 169 171 246 346 246 202 0 356-106 356-265 5-203-294-238-475-293-239-73-380-191-380-389 0-252 224-419 512-419 294 0 499 171 508 396H992c-17-145-151-228-328-228-193 0-321 102-321 242 0 156 175 211 284 241l149 41c160 44 422 134 422 412 0 244-197 432-541 432" id="ch"/><path fill="#3a414a" d="M338-670V0H158v-1490h180v566c73-149 190-208 336-208 226 0 379 139 379 422V0H872v-695c0-172-96-275-252-275-161 0-282 109-282 300" id="ci"/><g id="X"><use transform="matrix(0.008680555555555556,0,0,0.008680555555555556,0,0)" xlink:href="#ch"/><use transform="matrix(0.008680555555555556,0,0,0.008680555555555556,11.40625,0)" xlink:href="#bG"/><use transform="matrix(0.008680555555555556,0,0,0.008680555555555556,21.944444444444443,0)" xlink:href="#bO"/><use transform="matrix(0.008680555555555556,0,0,0.008680555555555556,31.927083333333332,0)" xlink:href="#bM"/><use transform="matrix(0.008680555555555556,0,0,0.008680555555555556,38.32465277777778,0)" xlink:href="#bJ"/><use transform="matrix(0.008680555555555556,0,0,0.008680555555555556,48.48090277777778,0)" xlink:href="#ci"/></g><path fill="#333" d="M180 0v-1490h224l606 953c40 63 108 177 176 312-27-437-7-821-13-1265h190V0h-226C860-448 622-778 356-1262c27 476 11 792 15 1262H180" id="cj"/><g id="Y"><use transform="matrix(0.008680555555555556,0,0,0.008680555555555556,0,0)" xlink:href="#bv"/><use transform="matrix(0.008680555555555556,0,0,0.008680555555555556,10.086805555555555,0)" xlink:href="#bq"/><use transform="matrix(0.008680555555555556,0,0,0.008680555555555556,20.74652777777778,0)" xlink:href="#br"/><use transform="matrix(0.008680555555555556,0,0,0.008680555555555556,31.631944444444446,0)" xlink:href="#bu"/><use transform="matrix(0.008680555555555556,0,0,0.008680555555555556,39.80902777777778,0)" xlink:href="#cj"/></g><path fill="#333" d="M180 0v-1490h510c348 0 508 194 508 460 0 198-88 351-276 417L1256 0h-220L726-579c-117 2-238 0-356 1V0H180zm190-747h312c235 0 327-108 327-283 0-177-92-293-329-293H370v576" id="ck"/><path fill="#333" d="M613 24c-304 0-509-231-509-576 0-350 205-580 509-580 216 0 392 114 453 309l-173 49c-33-115-133-197-280-197-223 0-326 196-326 419 0 220 103 415 326 415 150 0 252-85 285-206l172 49C1010-95 832 24 613 24" id="cl"/><g id="Z"><use transform="matrix(0.008680555555555556,0,0,0.008680555555555556,0,0)" xlink:href="#ck"/><use transform="matrix(0.008680555555555556,0,0,0.008680555555555556,11.180555555555559,0)" xlink:href="#bk"/><use transform="matrix(0.008680555555555556,0,0,0.008680555555555556,21.545138888888893,0)" xlink:href="#cl"/><use transform="matrix(0.008680555555555556,0,0,0.008680555555555556,31.701388888888893,0)" xlink:href="#bq"/><use transform="matrix(0.008680555555555556,0,0,0.008680555555555556,42.361111111111114,0)" xlink:href="#bj"/><use transform="matrix(0.008680555555555556,0,0,0.008680555555555556,57.934027777777786,0)" xlink:href="#bj"/><use transform="matrix(0.008680555555555556,0,0,0.008680555555555556,73.50694444444446,0)" xlink:href="#bk"/><use transform="matrix(0.008680555555555556,0,0,0.008680555555555556,83.87152777777779,0)" xlink:href="#bl"/><use transform="matrix(0.008680555555555556,0,0,0.008680555555555556,94.37500000000001,0)" xlink:href="#bn"/><use transform="matrix(0.008680555555555556,0,0,0.008680555555555556,105.26041666666669,0)" xlink:href="#bw"/><use transform="matrix(0.008680555555555556,0,0,0.008680555555555556,115.24305555555557,0)" xlink:href="#bm"/><use transform="matrix(0.008680555555555556,0,0,0.008680555555555556,121.0590277777778,0)" xlink:href="#bx"/><use transform="matrix(0.008680555555555556,0,0,0.008680555555555556,125.36458333333336,0)" xlink:href="#bq"/><use transform="matrix(0.008680555555555556,0,0,0.008680555555555556,136.02430555555557,0)" xlink:href="#bl"/></g><path fill="#333" d="M783 20c-382 0-661-292-661-764 0-473 279-766 661-766 302 0 548 182 601 489h-190c-42-204-217-313-411-313-268 0-476 208-476 590 0 381 209 588 476 588 195 0 369-110 411-313h190c-52 303-296 489-601 489" id="cm"/><path fill="#333" d="M481 0L54-1118h197c107 314 236 620 325 951 87-331 217-637 324-951h197L670 0H481" id="cn"/><g id="aa"><use transform="matrix(0.008680555555555556,0,0,0.008680555555555556,0,0)" xlink:href="#cm"/><use transform="matrix(0.008680555555555556,0,0,0.008680555555555556,12.986111111111112,0)" xlink:href="#bq"/><use transform="matrix(0.008680555555555556,0,0,0.008680555555555556,23.645833333333336,0)" xlink:href="#bl"/><use transform="matrix(0.008680555555555556,0,0,0.008680555555555556,33.88888888888889,0)" xlink:href="#cn"/><use transform="matrix(0.008680555555555556,0,0,0.008680555555555556,43.532986111111114,0)" xlink:href="#bk"/><use transform="matrix(0.008680555555555556,0,0,0.008680555555555556,53.89756944444445,0)" xlink:href="#bp"/><use transform="matrix(0.008680555555555556,0,0,0.008680555555555556,60.868055555555564,0)" xlink:href="#bm"/></g><g id="ab"><use transform="matrix(0.008680555555555556,0,0,0.008680555555555556,0,0)" xlink:href="#bm"/><use transform="matrix(0.008680555555555556,0,0,0.008680555555555556,5.642361111111112,0)" xlink:href="#bq"/></g><path fill="#333" d="M657 26c-323 0-524-166-541-416h195c15 169 171 246 346 246 202 0 356-106 356-265 5-203-294-238-475-293-239-73-380-191-380-389 0-252 224-419 512-419 294 0 499 171 508 396H992c-17-145-151-228-328-228-193 0-321 102-321 242 0 156 175 211 284 241l149 41c160 44 422 134 422 412 0 244-197 432-541 432" id="co"/><g id="ac"><use transform="matrix(0.008680555555555556,0,0,0.008680555555555556,0,0)" xlink:href="#co"/><use transform="matrix(0.008680555555555556,0,0,0.008680555555555556,11.40625,0)" xlink:href="#bm"/><use transform="matrix(0.008680555555555556,0,0,0.008680555555555556,17.22222222222222,0)" xlink:href="#bp"/><use transform="matrix(0.008680555555555556,0,0,0.008680555555555556,24.192708333333336,0)" xlink:href="#bx"/><use transform="matrix(0.008680555555555556,0,0,0.008680555555555556,28.498263888888893,0)" xlink:href="#bl"/><use transform="matrix(0.008680555555555556,0,0,0.008680555555555556,39.001736111111114,0)" xlink:href="#bi"/></g><g id="ad"><use transform="matrix(0.008680555555555556,0,0,0.008680555555555556,0,0)" xlink:href="#bX"/><use transform="matrix(0.008680555555555556,0,0,0.008680555555555556,10.494791666666668,0)" xlink:href="#bY"/><use transform="matrix(0.008680555555555556,0,0,0.008680555555555556,14.800347222222223,0)" xlink:href="#bZ"/><use transform="matrix(0.008680555555555556,0,0,0.008680555555555556,19.366319444444443,0)" xlink:href="#bK"/><use transform="matrix(0.008680555555555556,0,0,0.008680555555555556,25.008680555555554,0)" xlink:href="#bG"/><use transform="matrix(0.008680555555555556,0,0,0.008680555555555556,35.373263888888886,0)" xlink:href="#bM"/></g><g id="ae"><use transform="matrix(0.008680555555555556,0,0,0.008680555555555556,0,0)" xlink:href="#bW"/><use transform="matrix(0.008680555555555556,0,0,0.008680555555555556,12.829861111111112,0)" xlink:href="#bO"/><use transform="matrix(0.008680555555555556,0,0,0.008680555555555556,22.8125,0)" xlink:href="#bK"/><use transform="matrix(0.008680555555555556,0,0,0.008680555555555556,28.71527777777778,0)" xlink:href="#bO"/></g><g id="af"><use transform="matrix(0.008680555555555556,0,0,0.008680555555555556,0,0)" xlink:href="#bD"/><use transform="matrix(0.008680555555555556,0,0,0.008680555555555556,10.68576388888889,0)" xlink:href="#bE"/><use transform="matrix(0.008680555555555556,0,0,0.008680555555555556,26.258680555555557,0)" xlink:href="#bF"/><use transform="matrix(0.008680555555555556,0,0,0.008680555555555556,37.14409722222223,0)" xlink:href="#bG"/><use transform="matrix(0.008680555555555556,0,0,0.008680555555555556,47.508680555555564,0)" xlink:href="#bH"/></g><path fill="#3a414a" d="M180 0v-1490h510c348 0 508 209 508 474 0 266-160 477-507 477H370V0H180zm190-706h312c236 0 327-133 327-310 0-176-91-307-329-307H370v617" id="cp"/><g id="ag"><use transform="matrix(0.008680555555555556,0,0,0.008680555555555556,0,0)" xlink:href="#cp"/><use transform="matrix(0.008680555555555556,0,0,0.008680555555555556,11.354166666666668,0)" xlink:href="#bM"/><use transform="matrix(0.008680555555555556,0,0,0.008680555555555556,17.751736111111114,0)" xlink:href="#bL"/><use transform="matrix(0.008680555555555556,0,0,0.008680555555555556,28.411458333333336,0)" xlink:href="#bE"/><use transform="matrix(0.008680555555555556,0,0,0.008680555555555556,43.984375,0)" xlink:href="#bU"/><use transform="matrix(0.008680555555555556,0,0,0.008680555555555556,54.86979166666667,0)" xlink:href="#bK"/></g><path fill="#333" d="M180 0v-1490h901v168H370v510h643v168H370V0H180" id="cq"/><g id="ah"><use transform="matrix(0.010091145833333334,0,0,0.010091145833333334,0,0)" xlink:href="#cq"/><use transform="matrix(0.010091145833333334,0,0,0.010091145833333334,12.2001953125,0)" xlink:href="#bx"/><use transform="matrix(0.010091145833333334,0,0,0.010091145833333334,17.205403645833336,0)" xlink:href="#bl"/><use transform="matrix(0.010091145833333334,0,0,0.010091145833333334,29.41569010416667,0)" xlink:href="#bw"/><use transform="matrix(0.010091145833333334,0,0,0.010091145833333334,41.02050781250001,0)" xlink:href="#bC"/></g><path fill="#333" d="M784 20c-382 0-662-292-662-764 0-473 280-766 662-766s660 293 660 766c0 472-278 764-660 764zm0-176c266 0 475-207 475-588 0-383-209-590-475-590-268 0-477 208-477 590 0 380 209 588 477 588" id="cr"/><g id="ai"><use transform="matrix(0.010091145833333334,0,0,0.010091145833333334,0,0)" xlink:href="#cr"/><use transform="matrix(0.010091145833333334,0,0,0.010091145833333334,15.802734375000002,0)" xlink:href="#bh"/><use transform="matrix(0.010091145833333334,0,0,0.010091145833333334,28.02311197916667,0)" xlink:href="#bm"/><use transform="matrix(0.010091145833333334,0,0,0.010091145833333334,34.78417968750001,0)" xlink:href="#br"/><use transform="matrix(0.010091145833333334,0,0,0.010091145833333334,47.4384765625,0)" xlink:href="#bh"/><use transform="matrix(0.010091145833333334,0,0,0.010091145833333334,59.65885416666667,0)" xlink:href="#bm"/></g><path fill="#3a414a" d="M226 279v-1860h398v153H398V126h226v153H226" id="cs"/><path fill="#3a414a" d="M158 0v-1490h180v865h22l478-493h223L593-638 1096 0H865L456-523 338-412V0H158" id="ct"/><path fill="#3a414a" d="M123 279V126h226v-1554H123v-153h398V279H123" id="cu"/><g id="aj"><use transform="matrix(0.0087890625,0,0,0.0087890625,0,0)" xlink:href="#cs"/><use transform="matrix(0.0087890625,0,0,0.0087890625,6.5654296875,0)" xlink:href="#bZ"/><use transform="matrix(0.0087890625,0,0,0.0087890625,10.9248046875,0)" xlink:href="#bY"/><use transform="matrix(0.0087890625,0,0,0.0087890625,15.2841796875,0)" xlink:href="#cd"/><use transform="matrix(0.0087890625,0,0,0.0087890625,25.9189453125,0)" xlink:href="#ct"/><path fill="#8080ff" d="M5.67 3.67H36.7V4.9H5.67z"/><use transform="matrix(0.0087890625,0,0,0.0087890625,35.7978515625,0)" xlink:href="#cu"/></g></defs></g></svg>